<svg class="logo__desktop" width="217" height="54" viewBox="0 0 217 54" xmlns="http://www.w3.org/2000/svg" xmlns:xlink="http://www.w3.org/1999/xlink"><defs><path id="a" d="M265.453 83.097V30.035H49v53.062z"/></defs><g transform="translate(-49 -30)" fill="none" fill-rule="evenodd"><mask id="b" fill="#fff"><use xlink:href="#a"/></mask><text mask="url(#b)" font-family="Anago-Black" font-size="16.371" font-weight="700" fill="#F37820"><tspan x="124.542" y="47.211">ALL AROUND</tspan></text><text mask="url(#b)" font-family="Anago-Black" font-size="27.177" font-weight="700" fill="#FFF"><tspan x="124.192" y="69.834">MOBILITY</tspan></text><path d="M70.61 30.57c6.224.002 12.45-.004 18.675.003 8.035.009 14.87 2.821 20.28 8.825 3.383 3.755 5.386 8.163 6.274 13.168 1.966 11.075-3.828 22.387-13.537 27.447-5.703 2.972-11.7 3.837-17.954 2.415-9.707-2.21-16.122-8.227-19.334-17.542-.84-2.438-.915-5.156-1.2-7.76-.149-1.362.729-2.227 1.903-2.221 1.046.005 1.958.91 1.949 2.155-.021 2.8.469 5.502 1.561 8.064 2.964 6.946 8.027 11.535 15.42 13.366 9.495 2.352 18.43-1.517 23.662-8.886 8.113-11.427 3.413-27.802-9.524-33.288-2.963-1.256-6.056-1.86-9.247-1.867-13.109-.03-24.863-.007-37.973-.031-.667-.002-1.53-.058-1.947-.459-.439-.425-.693-1.326-.599-1.956.139-.93.99-1.376 1.924-1.432.82-.05 1.647-.004 2.47-.004 6.185.002 11.014 0 17.197.003" fill="#0094C1" mask="url(#b)"/><path d="M74.94 38.775c5.07 0 10.141.047 15.21-.01 7.683-.089 14.668 5.006 17.03 12.3 3.181 9.813-1.925 20.134-12.01 23.157-9.728 2.916-19.667-2.543-22.495-12.043-.464-1.56-.665-3.213-.851-4.839-.155-1.366.725-2.387 1.882-2.428 1.147-.041 1.872.866 1.988 2.34.48 6.078 3.405 10.486 9.096 12.828 6.842 2.816 14.854-.385 18.041-7.09 3.627-7.633-.174-16.867-8.177-19.582-1.6-.543-3.39-.711-5.095-.726-8.367-.074-16.734-.04-25.101-.042-2.182 0-5.36.043-7.542.002-1.464-.027-2.425-1.03-2.25-2.215.153-1.043.89-1.63 2.097-1.63 5.728-.005 12.45-.003 18.178-.003v-.019z" fill="#0094C1" mask="url(#b)"/><path d="M78.263 46.792c3.75 0 7.5-.006 11.25 0 5.031.011 8.802 2.61 10.117 7.419 1.568 5.729-1.875 10.88-7.144 12.373-4.597 1.301-10.39-1.3-12.148-6.883-.322-1.022-.3-2.185-.264-3.278.036-1.062.908-1.472 1.816-1.482.875-.01 1.585.461 1.795 1.405.153.681.233 1.379.37 2.064.529 2.623 3.472 4.804 6.233 4.628 2.887-.186 5.532-2.665 5.74-5.378.31-4.1-2.33-6.963-6.465-6.971-7.787-.014-15.575-.007-23.362-.013-1.636 0-2.427-.656-2.4-1.963.025-1.296.893-1.914 2.474-1.904 3.995.028 7.992.01 11.988.01v-.027" fill="#F37820" mask="url(#b)"/></g></svg>