<svg width="119" height="68" viewBox="0 0 119 68" xmlns="http://www.w3.org/2000/svg"><g fill="#FFF" fill-rule="evenodd" opacity=".2"><path d="M83.74.005c10.369.01 19.189 3.64 26.168 11.386 4.366 4.845 6.951 10.533 8.097 16.992 2.537 14.29-4.939 28.887-17.467 35.416-7.359 3.834-15.098 4.951-23.167 3.116-12.526-2.85-20.803-10.615-24.948-22.636-1.084-3.145-1.18-6.652-1.547-10.013-.193-1.757.94-2.873 2.454-2.865 1.35.006 2.527 1.175 2.515 2.78-.027 3.614.605 7.1 2.015 10.406 3.825 8.963 10.357 14.884 19.897 17.246 12.25 3.035 23.782-1.957 30.532-11.465C118.757 35.623 112.693 14.493 96 7.415c-3.823-1.62-7.813-2.4-11.93-2.41-16.916-.037-63.843.444-80.759.412-.86-.002-1.975-.075-2.512-.591C.231 4.276-.096 3.114.025 2.3.204 1.101 1.303.526 2.507.453 3.567.388 4.632.45 5.695.45 13.675.45 51.665-.003 59.644 0c8.032.003 16.065-.004 24.097.005z"/><path d="M84.686 10.001c9.915-.113 18.927 6.46 21.976 15.871 4.104 12.664-2.485 25.982-15.498 29.882-12.552 3.763-25.378-3.282-29.027-15.54-.599-2.014-.858-4.145-1.097-6.243-.2-1.763.935-3.08 2.428-3.134 1.48-.053 2.415 1.118 2.565 3.019.619 7.843 4.394 13.531 11.737 16.553 8.83 3.634 19.167-.496 23.28-9.15 4.68-9.847-.225-21.763-10.552-25.266-2.064-.7-4.375-.918-6.574-.937-10.796-.096-21.593-.052-32.39-.053-2.815-.002-43.79.208-46.604.155-1.89-.035-3.13-1.328-2.904-2.857.198-1.347 1.15-2.103 2.707-2.105 7.39-.006 52.938-.157 60.329-.157 6.541-.024 13.084.037 19.624-.038z"/><path d="M85.12 20.155c6.492.013 11.357 3.367 13.055 9.572 2.022 7.392-2.42 14.038-9.219 15.964-5.932 1.68-13.407-1.676-15.675-8.88-.416-1.32-.388-2.82-.341-4.23.047-1.37 1.171-1.9 2.343-1.913 1.13-.012 2.045.596 2.317 1.813.197.88.3 1.78.477 2.664.682 3.385 4.48 6.199 8.043 5.971 3.724-.24 7.138-3.438 7.405-6.938.4-5.291-3.004-8.986-8.34-8.996-10.049-.019-66.039-.185-76.087-.193-2.11 0-3.13-.846-3.097-2.533.033-1.672 1.153-2.47 3.192-2.456 5.156.037 56.255.188 61.41.188 4.84-.035 9.677-.043 14.516-.033z"/></g></svg>