<svg width="266" height="207" viewBox="0 0 266 207" xmlns="http://www.w3.org/2000/svg"><g fill="none" fill-rule="evenodd" opacity=".05"><path d="M85.307.348c24.572.01 49.148-.014 73.72.014 31.719.033 58.703 11.098 80.056 34.718 13.357 14.772 21.264 32.115 24.77 51.806 7.76 43.573-15.11 88.076-53.437 107.984-22.513 11.69-46.19 15.096-70.877 9.499-38.319-8.695-63.642-32.365-76.322-69.015-3.316-9.59-3.613-20.282-4.735-30.53-.59-5.357 2.875-8.759 7.508-8.736 4.133.019 7.732 3.583 7.695 8.478-.084 11.019 1.85 21.645 6.163 31.726 11.702 27.327 31.687 45.377 60.873 52.583 37.48 9.254 72.756-5.967 93.408-34.958 32.025-44.956 13.473-109.38-37.6-130.961-11.696-4.942-23.903-7.317-36.5-7.345-51.75-.116-98.153-.028-149.903-.125-2.634-.005-6.043-.226-7.685-1.803C.707 12.01-.295 8.465.076 5.987.623 2.327 3.986.575 7.668.353 10.91.154 14.171.339 17.422.339c24.414.005 43.476 0 67.885.01" fill="#FEFEFE"/><path d="M162.09 33.004c30.318-.347 57.877 19.752 67.2 48.528 12.549 38.719-7.598 79.44-47.392 91.367-22.418 6.72-45.122 2.166-62.353-10.252-12.27-8.843-21.766-21.675-26.407-37.265-1.831-6.156-2.624-12.673-3.357-19.088-.611-5.391 2.86-9.42 7.427-9.581 4.524-.163 7.385 3.416 7.844 9.228 1.891 23.984 13.434 41.376 35.89 50.614 26.998 11.11 58.61-1.516 71.186-27.975 14.31-30.11-.686-66.544-32.265-77.257-6.314-2.141-13.378-2.804-20.105-2.864-33.011-.292-66.027-.158-99.043-.163-8.608-.004-21.148.167-29.757.005-5.776-.107-9.568-4.06-8.877-8.738.603-4.116 3.514-6.429 8.275-6.433 22.6-.019 49.125-.01 71.724-.01 20.003-.074 40.011.112 60.01-.116z" fill="#FEFEFE"/><path d="M115.116 65.009c14.81 0 29.614-.023 44.424.005 19.87.041 34.76 10.238 39.956 29.12 6.189 22.489-7.405 42.708-28.214 48.57-18.154 5.11-41.032-5.1-47.973-27.017-1.271-4.013-1.188-8.579-1.044-12.868.144-4.17 3.587-5.779 7.173-5.82 3.457-.037 6.259 1.812 7.09 5.516.602 2.675.918 5.414 1.46 8.103 2.089 10.299 13.71 18.859 24.614 18.167 11.4-.729 21.848-10.46 22.664-21.11 1.225-16.096-9.196-27.335-25.527-27.368-30.751-.055-61.507-.027-92.258-.05-6.458-.005-9.58-2.574-9.479-7.707.102-5.087 3.531-7.513 9.771-7.472 15.78.11 31.563.037 47.343.037v-.106" fill="#FFF"/></g></svg>