
                        <svg width="266px" height="207px" viewBox="0 0 266 207" version="1.1" xmlns="http://www.w3.org/2000/svg" xmlns:xlink="http://www.w3.org/1999/xlink">
                            <!-- Generator: Sketch 43.1 (39012) - http://www.bohemiancoding.com/sketch -->
                            <desc>Created with Sketch.</desc>
                            <defs></defs>
                            <g id="Symbols" stroke="none" stroke-width="1" fill="none" fill-rule="evenodd" opacity="0.049999997">
                                <g id="footer" transform="translate(54.000000, -392.000000)">
                                    <g id="Page-1" transform="translate(-55.000000, 392.000000)">
                                        <g id="Group-3" fill="#FEFEFE">
                                            <path d="M86.3073207,0.348302222 C110.879079,0.357546667 135.455476,0.334435556 160.027234,0.362168889 C191.746045,0.394524444 218.729528,11.4601244 240.082562,35.07968 C253.439803,49.8523022 261.347476,67.19488 264.853752,86.8855467 C272.61301,130.459236 249.743372,174.961991 211.41551,194.869902 C188.902993,206.559502 165.226355,209.96608 140.538648,204.368569 C102.220062,195.674169 76.8969586,172.003769 64.2168552,135.354169 C60.9007345,125.763058 60.6039069,115.071858 59.4815276,104.824391 C58.8925103,99.4672356 62.3570448,96.06528 66.9903379,96.0883911 C71.1227345,96.10688 74.721769,99.6706133 74.6846655,104.565547 C74.6011828,115.584924 76.5352,126.211413 80.8484759,136.29248 C92.5499759,163.619058 112.534821,181.668836 141.721321,188.87488 C179.200441,198.128569 214.476545,182.907591 235.129252,153.917013 C267.154166,108.96128 248.602441,44.5367467 197.529545,22.9555911 C185.832683,18.0144356 173.625648,15.6386133 161.029028,15.61088 C109.278993,15.4953244 62.8764931,15.5831467 11.1264586,15.48608 C8.49211379,15.4814578 5.08323448,15.2595911 3.4414069,13.6834133 C1.70682069,12.0101689 0.705027586,8.46492444 1.07606207,5.98741333 C1.62333793,2.32661333 4.98583793,0.574791111 8.66835517,0.352924444 C11.910269,0.154168889 15.1707345,0.339057778 18.4219241,0.339057778 C42.8359931,0.34368 61.8978897,0.339057778 86.3073207,0.348302222" id="Fill-1"></path>
                                        </g>
                                        <path d="M163.089907,33.0044406 C193.407708,32.6567902 220.967238,52.7556154 230.28973,81.5317931 C242.838704,120.250771 222.691737,160.972214 182.898464,172.898938 C160.479704,179.618555 137.776291,175.06535 120.545289,162.647261 C108.274442,153.803872 98.7788749,140.971885 94.1377706,125.38209 C92.3066496,119.226361 91.5139365,112.709076 90.7814881,106.293768 C90.1695691,100.90287 93.6417454,96.8747615 98.2079586,96.7125247 C102.73245,96.5502879 105.592707,100.128769 106.051647,105.941482 C107.943032,129.924721 119.486048,147.316509 141.941618,156.554737 C168.940223,167.665642 200.551398,155.038982 213.128186,128.580473 C227.438744,98.4693178 212.442095,62.0355619 180.86337,51.323296 C174.54948,49.1817699 167.484597,48.5189165 160.758125,48.4586571 C127.746954,48.1666308 94.7311465,48.3010556 61.7153394,48.2964203 C53.1067527,48.291785 40.5670506,48.4632925 31.958464,48.3010556 C26.1823203,48.1944429 22.3902773,44.2404996 23.0810039,39.5634437 C23.6836514,35.4472636 26.594902,33.13423 31.3558166,33.1295947 C53.9550949,33.1110533 80.4808529,33.120324 103.080131,33.120324 C123.08339,33.0461586 143.091284,33.2315721 163.089907,33.0044406 Z" id="Fill-4" fill="#FEFEFE"></path>
                                        <path d="M116.115646,65.009008 C130.925183,65.009008 145.730081,64.9859475 160.539618,65.0136201 C180.410937,65.055129 195.299348,75.2524754 200.495676,94.1344006 C206.684875,116.622986 193.090908,136.842419 172.282394,142.704394 C154.12772,147.814598 131.249954,137.603415 124.309143,115.68673 C123.037898,111.674205 123.12141,107.108229 123.265237,102.818979 C123.409064,98.6496435 126.851632,97.0400217 130.438027,96.9985128 C133.894514,96.961616 136.69682,98.8110669 137.527305,102.514581 C138.13045,105.189597 138.445941,107.929183 138.988772,110.618035 C141.076583,120.916848 152.698729,129.4769 163.601741,128.785085 C175.001188,128.056374 185.44952,118.324849 186.266086,107.675517 C187.490935,91.5792988 177.07044,80.3396184 160.73912,80.3073338 C129.987988,80.2519886 99.232216,80.2796612 68.4810836,80.2566007 C62.022789,80.2519886 58.9003521,77.6830506 59.0024228,72.5497866 C59.1044936,67.4626436 62.5331428,65.0366806 68.7733771,65.0781895 C84.5525867,65.1888798 100.336436,65.1150862 116.115646,65.1150862 L116.115646,65.009008" id="Fill-6" fill="#FFFFFF"></path>
                                    </g>
                                </g>
                            </g>
                        </svg>