
<svg width="119px" height="68px" viewBox="0 0 119 68" version="1.1" xmlns="http://www.w3.org/2000/svg" xmlns:xlink="http://www.w3.org/1999/xlink">
    <!-- Generator: Sketch 43.1 (39012) - http://www.bohemiancoding.com/sketch -->
    <desc>Created with Sketch.</desc>
    <defs></defs>
    <g id="high-fildelity" stroke="none" stroke-width="1" fill="none" fill-rule="evenodd" opacity="0.200000003">
        <g id="location-dedicated" transform="translate(-33.000000, -245.000000)" fill="#FFFFFF">
            <path d="M116.740769,245.004659 C127.108657,245.015271 135.928715,248.644563 142.908355,256.391296 C147.27442,261.236415 149.859191,266.924427 151.005283,273.382565 C153.541542,287.673848 146.066172,302.269845 133.537991,308.799235 C126.179353,312.633185 118.440199,313.750473 110.370559,311.914604 C97.8454106,309.064534 89.5680792,301.299608 85.4233496,289.279286 C84.3394133,286.133597 84.2423896,282.627101 83.8755189,279.266141 C83.6829876,277.509103 84.8154357,276.393331 86.3299144,276.400911 C87.6806658,276.406975 88.8570777,277.575806 88.8449497,279.181245 C88.8176618,282.795376 89.4498316,286.280648 90.8597068,289.587033 C94.6845615,298.549594 101.216983,304.47107 110.757138,306.832989 C123.007892,309.868011 134.538548,304.87584 141.289272,295.367521 C151.757216,280.622956 145.693237,259.493021 128.999103,252.414841 C125.175764,250.794243 121.185666,250.015022 117.068224,250.005926 C100.152755,249.968026 53.2257562,250.448589 36.3102867,250.416753 C35.4492016,250.415237 34.3349455,250.342469 33.7982834,249.825515 C33.2313013,249.276725 32.9038464,248.113957 33.025126,247.301384 C33.2040134,246.100716 34.3031096,245.526154 35.5068095,245.453386 C36.5664898,245.388198 37.6322341,245.448838 38.6949464,245.448838 C46.6751428,245.450354 84.6653522,244.997079 92.6440326,245.000111 C100.675773,245.003143 108.709029,244.995563 116.740769,245.004659 Z" id="Fill-2"></path>
            <path d="M117.686104,255.001452 C127.60071,254.887753 136.613298,261.461106 139.661964,270.872401 C143.765762,283.535506 137.177248,296.85352 124.163949,300.754174 C111.611513,304.516873 98.7861971,297.472045 95.1371977,285.213712 C94.5383798,283.200471 94.2791447,281.068982 94.0396175,278.970845 C93.8395062,277.207744 94.9749863,275.890344 96.4682411,275.837284 C97.947852,275.784224 98.8832208,276.954572 99.0333043,278.85563 C99.6518301,286.699387 103.426657,292.387399 110.770136,295.408777 C119.599289,299.042616 129.936857,294.913046 134.049751,286.259748 C138.729627,276.411846 133.825384,264.496127 123.498428,260.992664 C121.433643,260.292274 119.123267,260.075487 116.923558,260.055779 C106.12816,259.960271 95.3312451,260.004235 84.5343304,260.002719 C81.7191281,260.001203 40.7448223,260.211378 37.9296201,260.158318 C36.0406906,260.12345 34.8006069,258.830307 35.0264901,257.300668 C35.2235694,255.954465 36.1756141,255.197983 37.7325408,255.196467 C45.1230152,255.190403 90.6710772,255.039352 98.0615516,255.039352 C104.603069,255.015096 111.146102,255.075736 117.686104,255.001452 Z" id="Fill-3"></path>
            <path d="M118.119092,265.154563 C124.612098,265.168207 129.476925,268.521587 131.174839,274.726554 C133.197176,282.118544 128.755311,288.764665 121.956075,290.691495 C116.023987,292.371217 108.548617,289.014804 106.280689,281.810797 C105.865307,280.491882 105.892595,278.991047 105.93959,277.581172 C105.986586,276.210713 107.111454,275.681631 108.283318,275.667987 C109.412734,275.655859 110.328395,276.263773 110.599758,277.481116 C110.796838,278.360393 110.899925,279.260894 111.077297,280.144719 C111.759494,283.529935 115.557061,286.343622 119.119649,286.116222 C122.844448,285.876695 126.258468,282.677946 126.525283,279.177514 C126.925506,273.886693 123.520582,270.192213 118.18428,270.181602 C108.136267,270.16341 52.1459822,269.996891 42.097969,269.989311 C39.9877043,269.989311 38.9674398,269.143386 39.0007917,267.456084 C39.0341435,265.783941 40.1544637,264.986528 42.1934766,265.000172 C47.3493748,265.036556 98.4475442,265.187915 103.603442,265.187915 C108.442498,265.153047 113.280037,265.145467 118.119092,265.154563 Z" id="Fill-4"></path>
        </g>
    </g>
</svg>