                    <svg class="logo__desktop" width="217px" height="54px" viewBox="0 0 217 54" version="1.1" xmlns="http://www.w3.org/2000/svg" xmlns:xlink="http://www.w3.org/1999/xlink">
                        <!-- Generator: Sketch 43.1 (39012) - http://www.bohemiancoding.com/sketch -->
                        <desc>Created with Sketch.</desc>
                        <defs>
                            <polygon id="path-1" points="265.453316 83.0966702 265.453316 30.0351562 49.0000304 30.0351562 49.0000304 83.0966702"></polygon>
                        </defs>
                        <g stroke="none" stroke-width="1" fill="none" fill-rule="evenodd">
                            <g id="dark-header" transform="translate(-49.000000, -30.000000)">
                                <mask id="mask-2" fill="white">
                                    <use xlink:href="#path-1"></use>
                                </mask>
                                <g id="Clip-1"></g>
                                <text mask="url(#mask-2)" font-family="Anago-Black" font-size="16.3714" font-weight="700" fill="#F37820">
                                    <tspan x="124.541849" y="47.2106197">ALL AROUND</tspan>
                                </text>
                                <text mask="url(#mask-2)" font-family="Anago-Black" font-size="27.1772" font-weight="700" fill="#FFFFFF">
                                    <tspan x="124.192096" y="69.8337602">MOBILITY</tspan>
                                </text>
                                <path d="M70.6099952,30.5698423 C76.8344885,30.5721921 83.0601565,30.5663177 89.2846498,30.573367 C97.3196269,30.5815911 104.155056,33.3942443 109.564185,39.3978608 C112.947828,43.1527646 114.950992,47.5608995 115.839198,52.5658714 C117.804765,63.6414278 112.011452,74.9531342 102.302276,80.0133253 C96.5994279,82.9845868 90.6016858,83.8504704 84.3478207,82.4276955 C74.6409949,80.2189286 68.2261718,74.2012135 65.0140607,64.8856215 C64.1740243,62.4477537 64.0988323,59.7302655 63.8145123,57.1255653 C63.665303,55.763884 64.5429354,54.8991752 65.7166366,54.9050496 C66.7634511,54.9097491 67.6751549,55.8155785 67.6657559,57.0597722 C67.6446081,59.8606767 68.1345314,62.5617167 69.2271661,65.1241213 C72.1913784,72.0699884 77.2539192,76.6590542 84.6474141,78.4895111 C94.1415873,80.8416129 103.077694,76.9727461 108.309417,69.6039236 C116.421936,58.1770793 111.722432,41.8016572 98.7846974,36.316161 C95.82166,35.0602185 92.7293863,34.4563322 89.538423,34.449283 C76.4291562,34.4199111 64.6745215,34.4422337 51.5652547,34.4175613 C50.8979252,34.4163865 50.0343913,34.3599924 49.6184852,33.9593597 C49.1790815,33.5340546 48.9253083,32.6329246 49.0192984,32.0031911 C49.1579338,31.0726893 50.0097189,30.6274113 50.9425705,30.5710172 C51.7638088,30.5204975 52.5897466,30.5674926 53.4133347,30.5674926 C59.5978822,30.5686675 64.4266227,30.5674926 70.6099952,30.5698423" fill="#0094C1" mask="url(#mask-2)"></path>
                                <path d="M74.9409408,38.7750591 C80.0105308,38.7750591 85.0812958,38.8220541 90.149711,38.7644852 C97.8334002,38.6763695 104.818038,43.7706319 107.180714,51.0642624 C110.361103,60.8780018 105.255092,71.1992878 95.1699563,74.2222438 C85.4419827,77.1382861 75.5025315,71.6786372 72.6746049,62.1785896 C72.2105289,60.6183542 72.009625,58.9664785 71.8239946,57.3404501 C71.668911,55.9740693 72.5488931,54.953102 73.706146,54.9119814 C74.852825,54.8708607 75.5777236,55.777865 75.6940363,57.2511595 C76.1733857,63.3299681 79.098827,67.738103 84.7899265,70.0796309 C91.6324045,72.8958088 99.6438842,69.6954465 102.831323,62.9892541 C106.458165,55.3572594 102.657441,46.1227338 94.6541857,43.4075952 C93.0540045,42.8648025 91.2634935,42.6967952 89.5587483,42.6815219 C81.1924561,42.6075047 72.824989,42.6415761 64.4575219,42.6404012 C62.2757771,42.6392263 59.0977375,42.6826967 56.9159927,42.6415761 C55.4520971,42.6145539 54.4910485,41.6123847 54.6661051,40.4269348 C54.8188389,39.3836448 55.5566611,38.7973817 56.7632588,38.7962068 C62.4907794,38.7915073 69.2134201,38.7938571 74.9409408,38.7938571 L74.9409408,38.7750591 Z" fill="#0094C1" mask="url(#mask-2)"></path>
                                <path d="M78.2630202,46.7915907 C82.0132245,46.7915907 85.7622539,46.7857163 89.5124582,46.7927656 C94.5444523,46.8033394 98.3146295,49.4021652 99.6304906,54.2109328 C101.197775,59.9396284 97.7553885,65.0902849 92.4860695,66.5835523 C87.8887796,67.885315 82.0954658,65.2841394 80.3378513,59.7011285 C80.0159353,58.6789864 80.037083,57.5158591 80.0735042,56.4232244 C80.1099253,55.3611365 80.9816834,54.9511047 81.8898625,54.9405308 C82.7651452,54.9311318 83.4747703,55.4022571 83.6850731,56.3456826 C83.837807,57.0271107 83.9176986,57.724987 84.0551591,58.4099398 C84.5838533,61.0334379 87.5269177,63.2140079 90.2878764,63.0377765 C93.1745468,62.852146 95.8203676,60.3731576 96.0271458,57.6603689 C96.3373131,53.5600515 93.6985415,50.6968786 89.5629779,50.6886545 C81.7758996,50.674556 73.9876463,50.6816052 66.200568,50.6757308 C64.5651406,50.6757308 63.774449,50.02015 63.8002963,48.712513 C63.8261435,47.4166247 64.6943769,46.7986399 66.2745852,46.8092138 C70.2703386,46.8374109 74.2672668,46.8186128 78.2630202,46.8186128 L78.2630202,46.7915907" fill="#F37820" mask="url(#mask-2)"></path>
                            </g>
                        </g>
                    </svg>
