<?xml version="1.0" encoding="utf-8"?>
<!-- Generator: Adobe Illustrator 21.0.0, SVG Export Plug-In . SVG Version: 6.00 Build 0)  -->
<svg version="1.1" id="Слой_1" xmlns="http://www.w3.org/2000/svg" xmlns:xlink="http://www.w3.org/1999/xlink" x="0px" y="0px"
	 viewBox="0 0 100 100" style="enable-background:new 0 0 100 100;" xml:space="preserve">
<g>
	<path fill="#0094C1" d="M48.9,0C33.6,0,21.3,12.4,21.3,27.6c0,12.3,18.1,44.3,25,55.5c1.2,1.9,4,1.9,5.2,0c6.9-11.2,25-43.1,25-55.5
		C76.4,12.4,64.1,0,48.9,0z M48.9,41c-7.4,0-13.4-6-13.4-13.4s6-13.4,13.4-13.4s13.4,6,13.4,13.4S56.3,41,48.9,41z"/>
	<path fill="#0094C1" d="M61.3,78.6c4.9,1.2,8.1,3.1,8.1,5.3c0,3.6-8.7,6.6-19.4,6.6s-19.4-3-19.4-6.6c0-2.2,3.2-4.2,8.1-5.3
		C26.3,80.2,17.5,84.2,17.5,89c0,6.1,14.5,11,32.5,11s32.5-4.9,32.5-11C82.5,84.2,73.7,80.2,61.3,78.6z"/>
</g>
</svg>
