<?xml version="1.0" encoding="utf-8"?>
<!-- Generator: Adobe Illustrator 21.0.0, SVG Export Plug-In . SVG Version: 6.00 Build 0)  -->
<svg version="1.1" id="Слой_1" xmlns="http://www.w3.org/2000/svg" xmlns:xlink="http://www.w3.org/1999/xlink" x="0px" y="0px"
	 viewBox="0 0 100 100" style="enable-background:new 0 0 100 100;" xml:space="preserve">
<g>
	<path fill="#0094C1" d="M50,0.1c-27.6,0-50,22.4-50,50c0,15.4,7,29.2,17.9,38.4l-6.1,9.1l35.8,2.4L31.8,67.7l-5.5,8.2c-0.4-0.3-0.7-0.7-1.1-1
		c-1.6-1.6-3-3.3-4.3-5.2c-1.3-1.9-2.4-3.9-3.2-5.9c-1.8-4.3-2.7-8.9-2.7-13.6s0.9-9.3,2.7-13.6c0.9-2.1,2-4.1,3.2-5.9
		c1.3-1.9,2.7-3.6,4.3-5.2c1.6-1.6,3.3-3,5.2-4.3c1.9-1.3,3.9-2.4,5.9-3.2C40.7,16,45.3,15,50,15s9.3,0.9,13.6,2.7
		c2.1,0.9,4.1,2,5.9,3.2c1.9,1.3,3.6,2.7,5.2,4.3c1.6,1.6,3,3.3,4.3,5.2c1.3,1.9,2.4,3.9,3.2,5.9c1.8,4.3,2.7,8.9,2.7,13.6
		s-0.9,9.3-2.7,13.6c-0.9,2.1-2,4.1-3.2,5.9c-1.3,1.9-2.7,3.6-4.3,5.2c-1.6,1.6-3.3,3-5.2,4.3c-1.9,1.3-3.9,2.4-6,3.2
		c-1.5,0.6-3.1,1.2-4.7,1.6l2,14.9c22.3-5,39.1-24.9,39.1-48.8C100,22.5,77.6,0.1,50,0.1z"/>
	<path fill="#0094C1" d="M53.1,73.2c-0.1,1.6,0,3.3,0,4.9c0,1.2,0.2,1.1-0.7,1.3c-0.9,0.3-2.8,0.2-3.6,0c-0.9-0.2-0.7-0.2-0.7-1.2c0-1,0-2.1,0-3.1
		c0-0.4,0.2-1.4,0-1.7c-0.3-0.6,0-0.1-0.4-0.4c-0.7-0.5-2.8-0.5-3.7-0.8c-3.9-1.2-7.3-3.8-8.8-7.7c-0.7-1.7-1-3.7-1-5.5
		c0-1-0.2-1,0.5-1c1.2-0.1,3.1-0.2,4.2-0.2c1.1,0,2.3,0,3.4,0c0.5,0,1.8-0.1,2.2,0.2c0.3,0.2,0.2,2,0.2,2.4c0.2,1,0.5,2,1.1,2.8
		c1.9,2.5,6.9,3.1,8.6,0.1c2.3-4-0.8-7.4-4.3-9c-4-1.8-8.5-3.3-11.6-6.5c-2.7-2.8-3.4-7.3-2.7-11c0.8-4.2,3.9-7.4,7.8-8.9
		c0.9-0.3,1.8-0.6,2.8-0.8c0.3-0.1,2,0,2.2-0.3c0.3-0.3,0-2.1,0-2.4c0-1,0-2,0-3c0-1.2,0-1.1,1.3-1.1c0.9,0,1.8-0.1,2.8,0
		c1.2,0.1,0.9,0,0.9,1.3c0,1.2,0,2.4,0,3.6c0,1.7-0.3,1.7,1.4,2c0.9,0.2,1.8,0.5,2.6,0.8c1.9,0.8,3.6,2,4.9,3.6
		c1.2,1.4,2,3.1,2.5,4.9c0.3,1,0.4,2.1,0.5,3.1c0.1,1,0.3,1.5-0.5,1.8c-0.8,0.3-2.5,0.2-3.4,0.2c-1.1,0-2.3,0-3.4,0
		c-0.6,0-2.5,0.1-3-0.2c-0.3-0.2-0.2-2-0.3-2.4c-0.4-1.9-1.4-3.6-3.4-4.1c-1.9-0.5-4.1,0.2-5,2c-0.9,1.8-0.8,4.3,0.4,5.9
		c1.3,1.8,3.7,2.6,5.5,3.4C56.8,48,61.6,50.1,64,54c2.3,3.8,2.1,9.5-0.2,13.2C61.4,71.2,57.4,72.3,53.1,73.2z"/>
</g>
</svg>
