<?xml version="1.0" encoding="UTF-8"?>
<svg width="48px" height="30px" viewBox="0 0 48 30" version="1.1" xmlns="http://www.w3.org/2000/svg" xmlns:xlink="http://www.w3.org/1999/xlink">
    <!-- Generator: Sketch 47.1 (45422) - http://www.bohemiancoding.com/sketch -->
    <title>cc-logo-amex@2x</title>
    <desc>Created with Sketch.</desc>
    <defs>
        <linearGradient x1="50%" y1="0%" x2="50%" y2="100%" id="linearGradient-1">
            <stop stop-color="#96D2F5" offset="0%"></stop>
            <stop stop-color="#1F8DCD" offset="100%"></stop>
        </linearGradient>
    </defs>
    <g id="Page-1" stroke="none" stroke-width="1" fill="none" fill-rule="evenodd">
        <g id="Artboard" transform="translate(-279.000000, -27.000000)">
            <g id="cc-logo-amex" transform="translate(279.000000, 27.000000)">
                <g id="Group">
                    <g id="card" fill="url(#linearGradient-1)">
                        <rect x="0" y="0" width="48" height="30" rx="4"></rect>
                    </g>
                    <g id="Group-7" transform="translate(7.680000, 9.000000)" fill="#FFFFFF">
                        <path d="M0.000119148936,5.7871 L1.61339574,5.7871 L1.97715745,4.8666 L2.79154043,4.8666 L3.15434894,5.7871 L6.32859574,5.7871 L6.32859574,5.08335 L6.61193191,5.789975 L8.2597617,5.789975 L8.54309787,5.07285 L8.54309787,5.7871 L16.4317106,5.7871 L16.428017,4.2761 L16.5806468,4.2761 C16.6875234,4.279975 16.7187404,4.29035 16.7187404,4.475475 L16.7187404,5.7871 L20.7988766,5.7871 L20.7988766,5.43535 C21.1278468,5.62035 21.6397106,5.7871 22.3132596,5.7871 L24.0297191,5.7871 L24.3970553,4.8666 L25.2114383,4.8666 L25.5706723,5.7871 L28.878366,5.7871 L28.878366,4.9126 L29.3792681,5.7871 L32.0298553,5.7871 L32.0298553,0.0071 L29.4066723,0.0071 L29.4066723,0.689725 L29.0393362,0.0071 L26.3476426,0.0071 L26.3476426,0.689725 L26.0103319,0.0071 L22.3745021,0.0071 C21.7658894,0.0071 21.2309106,0.096225 20.7988766,0.3446 L20.7988766,0.0071 L18.2897191,0.0071 L18.2897191,0.3446 C18.0147234,0.0886 17.64,0.0071 17.2233362,0.0071 L8.05685106,0.0071 L7.44180426,1.499975 L6.81019574,0.0071 L3.92297872,0.0071 L3.92297872,0.689725 L3.60580426,0.0071 L1.14347234,0.0071 L0,2.755225 L0,5.7871 L0.000119148936,5.7871 Z M31.1881872,4.9731 L29.8501447,4.9731 L28.0604085,1.8626 L28.0604085,4.9731 L26.1374638,4.9731 L25.7700085,4.048725 L23.8085787,4.048725 L23.4520851,4.9731 L22.347217,4.9731 C21.8882553,4.9731 21.307166,4.8666 20.9780766,4.514725 C20.6462468,4.162725 20.4736,3.686225 20.4736,2.9326 C20.4736,2.317975 20.576783,1.755975 20.9827234,1.3121 C21.2878638,0.98135 21.7658894,0.828725 22.4165617,0.828725 L23.3307915,0.828725 L23.3307915,1.716725 L22.4357447,1.716725 C22.091166,1.716725 21.8965957,1.7706 21.7091745,1.96235 C21.5482043,2.13685 21.4377532,2.466725 21.4377532,2.9011 C21.4377532,3.344975 21.5218723,3.665225 21.6973787,3.87435 C21.8427404,4.03835 22.1068936,4.0881 22.3554383,4.0881 L22.7794894,4.0881 L24.110383,0.828975 L25.5250383,0.828975 L27.1237787,4.74885 L27.1237787,0.828975 L28.5613106,0.828975 L30.2210553,3.715225 L30.2210553,0.828975 L31.1881872,0.828975 L31.1881872,4.9731 Z M19.0476255,4.9731 L20.0110638,4.9731 L20.0110638,0.82885 L19.0476255,0.82885 L19.0476255,4.9731 Z M18.500017,1.944975 C18.500017,2.605725 18.0796596,2.9471 17.8346894,3.0496 C18.0412936,3.1321 18.2177532,3.27785 18.3018723,3.3986 C18.4350809,3.604725 18.4580766,3.78885 18.4580766,4.158975 L18.4580766,4.9731 L17.5057191,4.9731 L17.5021447,4.450475 C17.5021447,4.2011 17.5249021,3.842475 17.3530894,3.6431 C17.2151149,3.49735 17.004817,3.465725 16.6648851,3.465725 L15.6512851,3.465725 L15.6512851,4.9731 L14.7071489,4.9731 L14.7071489,0.828725 L16.8788766,0.828725 C17.3614298,0.828725 17.7169702,0.842225 18.0222298,1.027225 C18.3209362,1.212475 18.500017,1.4826 18.500017,1.944975 L18.500017,1.944975 Z M14.0526638,4.9731 L10.898434,4.9731 L10.898434,0.828725 L14.0526638,0.828725 L14.0526638,1.69185 L11.8428085,1.69185 L11.8428085,2.438725 L13.9996426,2.438725 L13.9996426,3.28835 L11.8428085,3.28835 L11.8428085,4.11585 L14.0526638,4.11585 L14.0526638,4.9731 Z M10.1948596,4.9731 L9.22689362,4.9731 L9.2232,1.727225 L7.85405957,4.9731 L7.02502128,4.9731 L5.65242553,1.724475 L5.65242553,4.9731 L3.73186383,4.9731 L3.36905532,4.048725 L1.40309787,4.048725 L1.03659574,4.9731 L0.0110808511,4.9731 L1.7019234,0.828725 L3.10478298,0.828725 L4.71067234,4.7526 L4.71067234,0.828725 L6.25174468,0.828725 L7.4874383,3.640225 L8.62257021,0.828725 L10.1947404,0.828725 L10.1947404,4.9731 L10.1948596,4.9731 Z M25.4481872,3.18485 L24.7947745,1.532725 L24.1450553,3.18485 L25.4481872,3.18485 Z M17.2652766,2.526975 C17.1355234,2.6096 16.9820596,2.61235 16.7982128,2.61235 L15.651166,2.61235 L15.651166,1.69185 L16.8138213,1.69185 C16.978366,1.69185 17.1500596,1.6996 17.261583,1.766475 C17.3840681,1.826975 17.4598468,1.955475 17.4598468,2.132975 C17.4598468,2.3141 17.3877617,2.45985 17.2652766,2.526975 L17.2652766,2.526975 Z M3.02817021,3.18485 L2.38190638,1.532725 L1.73933617,3.18485 L3.02817021,3.18485 Z" id="Fill-3"></path>
                        <path d="M18.3018128,9.3273875 C18.3018128,10.4790125 17.4829021,10.7166375 16.6574383,10.7166375 L15.4794128,10.7166375 L15.4794128,12.1070125 L13.6440426,12.1070125 L12.4813872,10.7348875 L11.273217,12.1070125 L7.53301277,12.1070125 L7.53301277,7.9617625 L11.3306468,7.9617625 L12.4923489,9.3205125 L13.6933702,7.9617625 L16.7105787,7.9617625 C17.4599064,7.9617625 18.3018128,8.1793875 18.3018128,9.3273875 L18.3018128,9.3273875 Z M10.7951915,11.2431375 L8.47369362,11.2431375 L8.47369362,10.4185125 L10.5465277,10.4185125 L10.5465277,9.5727625 L8.47369362,9.5727625 L8.47369362,8.8191375 L10.8409447,8.8191375 L11.8737277,10.0271375 L10.7951915,11.2431375 Z M14.5389702,11.7300125 L13.0892851,10.0415125 L14.5389702,8.4067625 L14.5389702,11.7300125 Z M16.699617,9.8747625 L15.4794128,9.8747625 L15.4794128,8.8192625 L16.7105787,8.8192625 C17.0514638,8.8192625 17.2879745,8.9650125 17.2879745,9.3273875 C17.2879745,9.6860125 17.0624255,9.8747625 16.699617,9.8747625 L16.699617,9.8747625 Z M23.0701532,7.9617625 L26.2215234,7.9617625 L26.2215234,8.8191375 L24.0103574,8.8191375 L24.0103574,9.5727625 L26.1675489,9.5727625 L26.1675489,10.4185125 L24.0103574,10.4185125 L24.0103574,11.2431375 L26.2215234,11.2468875 L26.2215234,12.1070125 L23.0701532,12.1070125 L23.0701532,7.9617625 Z M21.8773532,10.1806375 C22.0875319,10.2621375 22.2593447,10.4080125 22.3398894,10.5286375 C22.473217,10.7310125 22.4925191,10.9198875 22.4962128,11.2853875 L22.4962128,12.1070125 L21.548383,12.1070125 L21.548383,11.5883875 C21.548383,11.3391375 21.5711404,10.9697625 21.3957532,10.7771375 C21.2577787,10.6285125 21.0474809,10.5930125 20.7029021,10.5930125 L19.6939489,10.5930125 L19.6939489,12.1070125 L18.745166,12.1070125 L18.745166,7.9617625 L20.9251149,7.9617625 C21.4030213,7.9617625 21.7511745,7.9838875 22.0612,8.1575125 C22.3591915,8.3462625 22.5466128,8.6050125 22.5466128,9.0778875 C22.5464936,9.7395125 22.1258979,10.0771375 21.8773532,10.1806375 L21.8773532,10.1806375 Z M21.3071064,9.6647625 C21.1806894,9.7433875 21.0246043,9.7502625 20.8408766,9.7502625 L19.6938298,9.7502625 L19.6938298,8.8192625 L20.8564851,8.8192625 C21.0246043,8.8192625 21.1928426,8.8230125 21.3071064,8.8940125 C21.4294723,8.9611375 21.5025106,9.0896375 21.5025106,9.2668875 C21.5025106,9.4443875 21.4294723,9.5871375 21.3071064,9.6647625 L21.3071064,9.6647625 Z M29.8270894,9.9208875 C30.0109362,10.1203875 30.1095915,10.3723875 30.1095915,10.7990125 C30.1095915,11.6907625 29.5785447,12.1070125 28.6261872,12.1070125 L26.7872426,12.1070125 L26.7872426,11.2182625 L28.6189191,11.2182625 C28.798,11.2182625 28.9248936,11.1933875 29.0044851,11.1155125 C29.0694213,11.0515125 29.1161277,10.9582625 29.1161277,10.8452625 C29.1161277,10.7243875 29.0657277,10.6285125 29.0009106,10.5710125 C28.9285872,10.5077625 28.8290979,10.4790125 28.6646723,10.4790125 C27.7816596,10.4475125 26.6757191,10.5077625 26.6757191,9.1960125 C26.6757191,8.5947625 27.0359064,7.9618875 28.0256766,7.9618875 L29.9187149,7.9618875 L29.9187149,8.8442625 L28.1866468,8.8442625 C28.014834,8.8442625 27.9033106,8.8508875 27.8082298,8.9190125 C27.7049277,8.9861375 27.6665617,9.0857625 27.6665617,9.2172625 C27.6665617,9.3737625 27.7543745,9.4800125 27.873166,9.5261375 C27.9727745,9.5625125 28.0796511,9.5730125 28.2406213,9.5730125 L28.7489106,9.5873875 C29.2613702,9.6006375 29.6133362,9.6936375 29.8270894,9.9208875 L29.8270894,9.9208875 Z M33.5936255,11.5768875 C33.3642638,11.9287625 32.9173362,12.1070125 32.3122979,12.1070125 L30.4887234,12.1070125 L30.4887234,11.2182625 L32.3047915,11.2182625 C32.4849447,11.2182625 32.6111234,11.1933875 32.6869021,11.1155125 C32.7526723,11.0515125 32.7986638,10.9582625 32.7986638,10.8452625 C32.7986638,10.7243875 32.7526723,10.6286375 32.6832085,10.5710125 C32.614817,10.5077625 32.5150894,10.4790125 32.3505447,10.4790125 C31.4640766,10.4475125 30.358017,10.5077625 30.358017,9.1960125 C30.358017,8.5947625 30.7217787,7.9618875 31.7127404,7.9618875 L33.5935064,7.9618875 L33.5935064,7.1372625 L31.8460681,7.1372625 C31.3187149,7.1372625 30.9355319,7.2697625 30.6643489,7.4756375 L30.6643489,7.1372625 L28.0795319,7.1372625 C27.6663234,7.1372625 27.1810298,7.2446375 26.9516681,7.4756375 L26.9516681,7.1372625 L22.3359574,7.1372625 L22.3359574,7.4756375 C21.9686213,7.1977625 21.3488085,7.1372625 21.0628511,7.1372625 L18.0183574,7.1372625 L18.0183574,7.4756375 C17.7277532,7.1803875 17.0814894,7.1372625 16.6874638,7.1372625 L13.2802809,7.1372625 L12.5005702,8.0225125 L11.7703064,7.1372625 L6.68050213,7.1372625 L6.68050213,12.9211375 L11.6745106,12.9211375 L12.4778128,12.0220125 L13.234766,12.9211375 L16.3130979,12.9240125 L16.3130979,11.5635125 L16.6157362,11.5635125 C17.0240596,11.5700125 17.5057787,11.5527625 17.9309021,11.3601375 L17.9309021,12.9211375 L20.4698468,12.9211375 L20.4698468,11.4135125 L20.5924511,11.4135125 C20.7486553,11.4135125 20.7641447,11.4203875 20.7641447,11.5842625 L20.7641447,12.9208875 L28.4772511,12.9208875 C28.9670723,12.9208875 29.4789362,12.7893875 29.7622723,12.5507625 L29.7622723,12.9208875 L32.2089957,12.9208875 C32.718,12.9208875 33.2153277,12.8460125 33.5936255,12.6542625 L33.5936255,11.5768875 Z M33.5936255,8.8440125 L31.8726383,8.8440125 C31.7009447,8.8440125 31.5868,8.8506375 31.4905277,8.9188875 C31.3909191,8.9860125 31.3525532,9.0855125 31.3525532,9.2170125 C31.3525532,9.3735125 31.4366723,9.4797625 31.5591574,9.5258875 C31.658766,9.5622625 31.7657617,9.5727625 31.9229191,9.5727625 L32.4346638,9.5871375 C32.9510553,9.6006375 33.2958723,9.6936375 33.5060511,9.9208875 C33.5442979,9.9523875 33.5671745,9.9880125 33.5936255,10.0233875 L33.5936255,8.8440125 Z" id="Fill-5"></path>
                    </g>
                </g>
            </g>
        </g>
    </g>
</svg>