<?xml version="1.0" encoding="UTF-8"?>
<svg width="50px" height="32px" viewBox="0 0 50 32" version="1.1" xmlns="http://www.w3.org/2000/svg" xmlns:xlink="http://www.w3.org/1999/xlink">
    <!-- Generator: Sketch 47.1 (45422) - http://www.bohemiancoding.com/sketch -->
    <title>cc-logo-discover@2x</title>
    <desc>Created with Sketch.</desc>
    <defs>
        <rect id="path-1" x="0" y="0" width="48" height="30" rx="4"></rect>
        <polygon id="path-3" points="42.9692514 27.999927 42.9692514 0.143408696 0 0.143408696 0 28 42.9692514 28 2.40223464e-05 27.999927 2.40223464e-05 0.143335652 42.9692754 0.143335652 42.9692754 27.999927"></polygon>
        <polygon id="path-5" points="0.456501116 28.3203453 43.5126881 28.3203453 43.5126881 0.536621094 0.456501116 0.536621094"></polygon>
    </defs>
    <g id="Page-1" stroke="none" stroke-width="1" fill="none" fill-rule="evenodd">
        <g id="Artboard" transform="translate(-336.000000, -26.000000)">
            <g id="cc-logo-discover" transform="translate(337.000000, 27.000000)">
                <g id="Group-2" stroke-width="1">
                    <g>
                        <mask id="mask-2" fill="white">
                            <use xlink:href="#path-1"></use>
                        </mask>
                        <use id="Mask" stroke="#E7E7E7" fill="#FFFFFF" xlink:href="#path-1"></use>
                        <g id="Page-1" mask="url(#mask-2)">
                            <g transform="translate(2.000000, 1.000000)" id="Group-16">
                                <g>
                                    <path d="M46.4532961,14 C46.4532961,14 31.8132626,24.422087 5,29.0865217 L46.4532961,29.0865217 L46.4532961,14 Z" id="Fill-2" fill="#F4811F"></path>
                                    <g id="Group-6" transform="translate(0.000000, 1.000000)">
                                        <mask id="mask-4" fill="white">
                                            <use xlink:href="#path-3"></use>
                                        </mask>
                                        <g id="Clip-5"></g>
                                        <path d="M42.6589067,0.459126957 L42.6589067,27.6838922 L0.310392737,27.6838922 C0.310392737,27.3751617 0.308711173,0.770535652 0.308711173,0.46010087 C0.618118994,0.46010087 42.3478173,0.459126957 42.6589067,0.459126957 L42.6589067,0.459126957 Z M42.8140911,0.143335652 L2.4022346e-05,0.147718261 L2.4022346e-05,27.999927 L42.9692754,27.999927 L42.966633,0.143335652 L42.8140911,0.143335652 Z" id="Fill-4" fill="#231F20" mask="url(#mask-4)"></path>
                                    </g>
                                    <path d="M5.25591838,14.0354098 C4.87415314,14.3834014 4.37805089,14.5351773 3.59285655,14.5351773 L3.2666952,14.5351773 L3.2666952,10.3784615 L3.59285655,10.3784615 C4.37805089,10.3784615 4.85465567,10.5202809 5.25591838,10.8869714 C5.67619714,11.2643469 5.9289421,11.8495946 5.9289421,12.4515983 C5.9289421,13.0550591 5.67619714,13.6580343 5.25591838,14.0354098 M3.83621384,9.31360212 L2.05231585,9.31360212 L2.05231585,15.5990654 L3.82682617,15.5990654 C4.77040735,15.5990654 5.4518559,15.3746799 6.04977826,14.8734553 C6.76059337,14.2801939 7.18087213,13.3858091 7.18087213,12.4608263 C7.18087213,10.6057611 5.8071431,9.31360212 3.83621384,9.31360212" id="Fill-7" fill="#231F20"></path>
                                    <mask id="mask-6" fill="white">
                                        <use xlink:href="#path-5"></use>
                                    </mask>
                                    <g id="Clip-10"></g>
                                    <polygon id="Fill-9" fill="#231F20" mask="url(#mask-6)" points="8.43557478 15.5993082 9.65091697 15.5993082 9.65091697 9.31360212 8.43557478 9.31360212"></polygon>
                                    <path d="M12.5453594,11.8294387 C11.8160096,11.5572136 11.6020189,11.3777538 11.6020189,11.0380187 C11.6020189,10.6421873 11.9835434,10.3413068 12.5073273,10.3413068 C12.87128,10.3413068 13.1707226,10.4923541 13.4872556,10.8503023 L14.12321,10.010314 C13.6006297,9.54915825 12.9755072,9.31360212 12.2923737,9.31360212 C11.1899243,9.31360212 10.349126,10.0858377 10.349126,11.1145137 C10.349126,11.9804861 10.7407604,12.4239144 11.881964,12.8382018 C12.3578467,13.0077051 12.6000004,13.1203835 12.7220401,13.19615 C12.964916,13.3561824 13.0864743,13.5827534 13.0864743,13.846722 C13.0864743,14.3559604 12.6852116,14.733093 12.1428931,14.733093 C11.5632647,14.733093 11.0962883,14.440712 10.8165838,13.8948046 L10.0313895,14.6575694 C10.5912798,15.4868726 11.2638221,15.8542916 12.1886279,15.8542916 C13.4513899,15.8542916 14.3374415,15.0070181 14.3374415,13.7903828 C14.3374415,12.7915763 13.9277539,12.3396485 12.5453594,11.8294387" id="Fill-11" fill="#231F20" mask="url(#mask-6)"></path>
                                    <path d="M14.0209263,12.6028885 C14.0209263,14.4504257 15.4589248,15.8829469 17.3094993,15.8829469 C17.832561,15.8829469 18.2807621,15.7792537 18.8331904,15.5167421 L18.8331904,14.0735359 C18.3474386,14.5640754 17.9170501,14.7619911 17.366066,14.7619911 C16.1420583,14.7619911 15.2733378,13.866635 15.2733378,12.5936605 C15.2733378,11.3869818 16.1694992,10.4350436 17.3094993,10.4350436 C17.8891278,10.4350436 18.3279411,10.6436443 18.8331904,11.1421977 L18.8331904,9.6997199 C18.2997781,9.4267662 17.8612055,9.31360212 17.3381437,9.31360212 C15.4969569,9.31360212 14.0209263,10.7752643 14.0209263,12.6028885" id="Fill-12" fill="#231F20" mask="url(#mask-6)"></path>
                                    <polygon id="Fill-13" fill="#231F20" mask="url(#mask-6)" points="28.9786672 13.5356422 27.3172903 9.31360212 25.9895368 9.31360212 28.6334898 15.7605549 29.2874975 15.7605549 31.9791109 9.31360212 30.6617079 9.31360212"></polygon>
                                    <polygon id="Fill-14" fill="#231F20" mask="url(#mask-6)" points="32.3727958 15.5993082 35.8192742 15.5993082 35.8192742 14.5351773 33.5871751 14.5351773 33.5871751 12.8384446 35.7371922 12.8384446 35.7371922 11.7738281 33.5871751 11.7738281 33.5871751 10.3787044 35.8192742 10.3787044 35.8192742 9.31360212 32.3727958 9.31360212"></polygon>
                                    <path d="M37.931277,12.2075428 L37.5762305,12.2075428 L37.5762305,10.3039092 L37.9505338,10.3039092 C38.7075651,10.3039092 39.1189376,10.6237313 39.1189376,11.2354487 C39.1189376,11.867322 38.7075651,12.2075428 37.931277,12.2075428 M40.3694234,11.1693959 C40.3694234,9.9925866 39.5659351,9.31360212 38.1645245,9.31360212 L36.3623326,9.31360212 L36.3623326,15.5993082 L37.5762305,15.5993082 L37.5762305,13.0742436 L37.7348581,13.0742436 L39.416936,15.5993082 L40.9115011,15.5993082 L38.9499596,12.9513659 C39.8653777,12.7634067 40.3694234,12.1317762 40.3694234,11.1693959" id="Fill-15" fill="#231F20" mask="url(#mask-6)"></path>
                                </g>
                            </g>
                        </g>
                    </g>
                </g>
                <circle id="Oval-7" fill="#F47920" cx="24.5" cy="13.5" r="3.5"></circle>
            </g>
        </g>
    </g>
</svg>