<?xml version="1.0" encoding="UTF-8"?>
<svg width="48px" height="30px" viewBox="0 0 48 30" version="1.1" xmlns="http://www.w3.org/2000/svg" xmlns:xlink="http://www.w3.org/1999/xlink">
    <!-- Generator: Sketch 47.1 (45422) - http://www.bohemiancoding.com/sketch -->
    <title>cc-logo-mc@2x</title>
    <desc>Created with Sketch.</desc>
    <defs></defs>
    <g id="Page-1" stroke="none" stroke-width="1" fill="none" fill-rule="evenodd">
        <g id="Artboard" transform="translate(-221.000000, -27.000000)">
            <g id="cc-logo-mc" transform="translate(221.000000, 27.000000)">
                <g id="mastercard-icon">
                    <g id="card" fill="#14457C">
                        <rect x="0" y="0" width="48" height="30" rx="4"></rect>
                    </g>
                    <g id="logo" transform="translate(9.000000, 6.000000)">
                        <path d="M17.855761,8.96867717 C17.855761,13.9220787 13.865761,17.9370709 8.94364835,17.9370709 C4.02111314,17.9370709 0.0308314535,13.9220787 0.0308314535,8.96867717 C0.0308314535,4.01541732 4.02111314,0 8.94364835,0 C13.865761,0 17.855761,4.01541732 17.855761,8.96867717" id="Fill-2" fill="#D82332"></path>
                        <path d="M20.9967469,0 C18.6935075,0 16.5953385,0.879165354 15.0133667,2.32143307 C14.6916765,2.61538583 14.3911131,2.93286614 14.1140709,3.27089764 L15.9144934,3.27089764 C16.1604089,3.57222047 16.3871695,3.88899213 16.59393,4.2207874 L13.4342117,4.2207874 C13.2453385,4.52565354 13.0733667,4.8424252 12.9208315,5.17067717 L17.1073103,5.17067717 C17.2504089,5.47809449 17.3763244,5.79472441 17.4847751,6.12014173 L12.5433667,6.12014173 C12.4404089,6.42954331 12.3537892,6.74631496 12.2843526,7.06946457 L17.7433667,7.06946457 C17.87393,7.68174803 17.9435075,8.31699213 17.9435075,8.96867717 C17.9435075,9.96434646 17.7823807,10.9227402 17.4847751,11.8177795 L12.5433667,11.8177795 C12.6516765,12.1430551 12.7777329,12.4599685 12.9205498,12.767811 L17.1073103,12.767811 C16.9543526,13.0952126 16.7832258,13.4122677 16.5932258,13.7175591 L13.4342117,13.7175591 C13.6404089,14.0483622 13.867592,14.3655591 14.1140709,14.6664567 L15.91393,14.6664567 C15.6373103,15.0047717 15.3366061,15.322252 15.0137892,15.6162047 C16.5956202,17.0584724 18.6935075,17.9370709 20.9967469,17.9370709 C25.9188596,17.9370709 29.9091413,13.9220787 29.9091413,8.96867717 C29.9091413,4.01584252 25.9188596,0 20.9967469,0" id="Fill-3" fill="#F1AB3E"></path>
                        <path d="M28.6223807,13.8958583 C28.6223807,13.7359843 28.7513948,13.6062992 28.9104089,13.6062992 C29.0697047,13.6062992 29.1981554,13.7359843 29.1981554,13.8958583 C29.1981554,14.055874 29.0697047,14.1857008 28.9104089,14.1857008 C28.7513948,14.1857008 28.6223807,14.055874 28.6223807,13.8958583 L28.6223807,13.8958583 Z M28.9104089,14.116252 C29.0308315,14.116252 29.1291413,14.0174646 29.1291413,13.8958583 C29.1291413,13.7738268 29.0308315,13.6758898 28.9104089,13.6758898 C28.789423,13.6758898 28.6913948,13.7738268 28.6913948,13.8958583 C28.6913948,14.0174646 28.789423,14.116252 28.9104089,14.116252 L28.9104089,14.116252 Z M28.8713948,14.0229921 L28.8122399,14.0229921 L28.8122399,13.7688661 L28.919423,13.7688661 C28.9415357,13.7688661 28.9643526,13.7688661 28.9840709,13.7810551 C29.0042117,13.7955118 29.0160427,13.819748 29.0160427,13.8449764 C29.0160427,13.873748 28.9995638,13.9006772 28.9720991,13.9108819 L29.0188596,14.0229921 L28.9533667,14.0229921 L28.9144934,13.9225039 L28.8713948,13.9225039 L28.8713948,14.0229921 L28.8713948,14.0229921 Z M28.8713948,13.8787087 L28.9040709,13.8787087 C28.9161836,13.8787087 28.9291413,13.8795591 28.9401272,13.873748 C28.9497047,13.8673701 28.954916,13.8560315 28.954916,13.8444094 C28.954916,13.8347717 28.9484371,13.8234331 28.9404089,13.8184724 C28.9299864,13.812378 28.9136484,13.8136535 28.9026624,13.8136535 L28.8713948,13.8136535 L28.8713948,13.8787087 L28.8713948,13.8787087 Z" id="registered" fill="#F1AB3E"></path>
                        <path d="M28.6223807,11.0614961 C28.6223807,10.9009134 28.7516765,10.7716535 28.9098455,10.7716535 C29.0691413,10.7716535 29.197592,10.9009134 29.197592,11.0614961 C29.197592,11.2209449 29.0691413,11.3510551 28.9098455,11.3510551 C28.7516765,11.3510551 28.6223807,11.2209449 28.6223807,11.0614961 L28.6223807,11.0614961 Z M28.9098455,11.2816063 C29.0311131,11.2816063 29.1291413,11.1828189 29.1291413,11.0614961 C29.1291413,10.9400315 29.0311131,10.8412441 28.9098455,10.8412441 C28.7891413,10.8412441 28.6913948,10.9400315 28.6913948,11.0614961 C28.6913948,11.1828189 28.7891413,11.2816063 28.9098455,11.2816063 L28.9098455,11.2816063 Z M28.8711131,11.188063 L28.8122399,11.188063 L28.8122399,10.933937 L28.9191413,10.933937 C28.9415357,10.933937 28.9640709,10.9347874 28.9836484,10.9469764 C29.0044934,10.9607244 29.015761,10.9851024 29.015761,11.0103307 C29.015761,11.0391024 28.9992822,11.0660315 28.9723807,11.0762362 L29.0188596,11.188063 L28.9533667,11.188063 L28.9144934,11.0875748 L28.8711131,11.0875748 L28.8711131,11.188063 L28.8711131,11.188063 Z M28.8711131,11.044063 L28.9037892,11.044063 C28.9156202,11.044063 28.929423,11.0451969 28.9398455,11.0391024 C28.949423,11.0330079 28.9543526,11.0208189 28.9543526,11.0097638 C28.9543526,11.000126 28.9487188,10.9893543 28.9404089,10.9834016 C28.9302681,10.9777323 28.9136484,10.9792913 28.9026624,10.9792913 L28.8711131,10.9792913 L28.8711131,11.044063 L28.8711131,11.044063 Z" id="registered" fill="#FFFFFE"></path>
                        <path d="M27.7106906,6.94488189 L27.4956202,8.25916535 C27.2315357,7.90894488 26.9473103,7.65524409 26.5720991,7.65524409 C26.0837892,7.65524409 25.6395638,8.02771654 25.3485779,8.57622047 C24.9432258,8.4916063 24.5246343,8.34774803 24.5246343,8.34774803 L24.5243526,8.35129134 C24.5564653,8.04472441 24.5702681,7.85820472 24.5670286,7.7944252 L23.6781554,7.7944252 C23.5574512,8.93976378 23.3419582,10.0994173 23.17393,11.2451811 L23.129423,11.494063 L24.0977329,11.494063 C24.2282962,10.6402677 24.3281554,9.93047244 24.4019582,9.3683622 C24.7328033,9.06746457 24.8984371,8.80554331 25.2320991,8.82255118 C25.0842117,9.18283465 24.9977329,9.59754331 24.9977329,10.0230236 C24.9977329,10.9475433 25.4623807,11.5579843 26.1660427,11.5579843 C26.5206906,11.5579843 26.7926624,11.4348189 27.0581554,11.1496535 L27.0125216,11.4937795 L27.9280146,11.4937795 L28.664916,6.94488189 L27.7106906,6.94488189 L27.7106906,6.94488189 Z M26.5005498,10.6394173 C26.171254,10.6394173 26.0046343,10.3936535 26.0046343,9.91006299 C26.0046343,9.18283465 26.3163244,8.66735433 26.7550568,8.66735433 C27.087592,8.66735433 27.2677329,8.92190551 27.2677329,9.39188976 C27.2677329,10.1253543 26.9508315,10.6394173 26.5005498,10.6394173 L26.5005498,10.6394173 Z" id="Fill-12" fill="#0C2D5A"></path>
                        <path d="M22.1484371,9.92962205 C22.0474512,9.91771654 22.0026624,9.91445669 21.933085,9.91445669 C21.3847751,9.91445669 21.1071695,10.1035276 21.1071695,10.4772756 C21.1071695,10.7073071 21.2426624,10.8545669 21.45393,10.8545669 C21.8477329,10.8545669 22.1322399,10.4769921 22.1484371,9.92962205 L22.1484371,9.92962205 Z M22.8526624,11.5775433 L22.0511131,11.5775433 L22.0692822,11.1944409 C21.8246343,11.4970394 21.4984371,11.641748 21.0554793,11.641748 C20.5306906,11.641748 20.1716765,11.2293071 20.1716765,10.6309134 C20.1716765,9.72977953 20.7964653,9.20508661 21.8701272,9.20508661 C21.9798455,9.20508661 22.1201272,9.21514961 22.26393,9.23385827 C22.29393,9.11140157 22.3019582,9.05938583 22.3019582,8.99305512 C22.3019582,8.7484252 22.13393,8.65729134 21.6816765,8.65729134 C21.2084371,8.65162205 20.8184371,8.77025197 20.6574512,8.82311811 C20.6677329,8.76188976 20.7916765,7.99129134 20.7916765,7.99129134 C21.27393,7.84899213 21.5916765,7.79527559 21.9495638,7.79527559 C22.7804089,7.79527559 23.2206906,8.17100787 23.2197047,8.88023622 C23.2215357,9.07029921 23.1902681,9.30543307 23.1415357,9.61327559 C23.057592,10.1485984 22.8774512,11.2983307 22.8526624,11.5775433 L22.8526624,11.5775433 Z" id="a" fill="#0C2D5A"></path>
                        <path d="M19.5961836,7.92992126 C19.864916,7.92992126 20.115761,8.00022047 20.4608315,8.17540157 L20.6192822,7.18823622 C20.4770286,7.13211024 19.9782962,6.80314961 19.555761,6.80314961 C18.9084371,6.80314961 18.3604089,7.12686614 17.9759019,7.65992126 C17.4142117,7.47283465 17.183085,7.85097638 16.9002681,8.22798425 L16.6488596,8.28694488 C16.6678737,8.16292913 16.6851977,8.03962205 16.6797047,7.91489764 L15.7905498,7.91489764 C15.6695638,9.06023622 15.4544934,10.2198898 15.2860427,11.3656535 L15.2420991,11.6145354 L16.2101272,11.6145354 C16.3715357,10.558063 16.4598455,9.88185827 16.5137892,9.42377953 L16.8782962,9.22053543 C16.933085,9.01629921 17.103085,8.94770079 17.444916,8.95606299 C17.4004089,9.19729134 17.3761836,9.45141732 17.3761836,9.71433071 C17.3761836,10.9248661 18.0259019,11.6784567 19.0671695,11.6784567 C19.3353385,11.6784567 19.5659019,11.6430236 19.9226624,11.5452283 L20.0920991,10.5085984 C19.7713948,10.6671969 19.5087188,10.7418898 19.2704089,10.7418898 C18.7078737,10.7418898 18.367592,10.3239213 18.367592,9.63354331 C18.367592,8.6316378 18.8735075,7.92992126 19.5961836,7.92992126" id="Fill-11" fill="#0C2D5A"></path>
                        <path d="M14.9092822,11.4920787 C14.5788596,11.5938425 14.2595638,11.6420315 13.9222399,11.641748 C12.8453385,11.6410394 12.2843526,11.0748189 12.2843526,9.99141732 C12.2843526,8.72645669 12.9981554,7.79527559 13.9670286,7.79527559 C14.7606906,7.79527559 15.2668878,8.31656693 15.2668878,9.1347874 C15.2668878,9.40592126 15.2316765,9.67053543 15.1485779,10.0442835 L13.2332258,10.0442835 C13.1681554,10.5810236 13.5097047,10.8049606 14.0690005,10.8049606 C14.413085,10.8049606 14.7237892,10.7332441 15.069423,10.5716693 L14.9092822,11.4920787 L14.9092822,11.4920787 Z M14.3687188,9.29820472 C14.37393,9.2208189 14.4705498,8.63787402 13.9209723,8.63787402 C13.6147751,8.63787402 13.395761,8.87329134 13.3064653,9.29820472 L14.3687188,9.29820472 L14.3687188,9.29820472 Z" id="e" fill="#0C2D5A"></path>
                        <path d="M11.9134952,11.5731496 C11.6488474,11.6570551 11.4423685,11.6934803 11.2185657,11.6934803 C10.7239178,11.6934803 10.4537769,11.4073228 10.4537769,10.8810709 C10.4470164,10.7169449 10.5251854,10.2876378 10.5865938,9.89475591 C10.6423685,9.5487874 11.0061713,7.37007874 11.0061713,7.37007874 L11.9678614,7.37007874 L11.8554671,7.92992126 L12.349129,7.92992126 L12.2177206,8.81886614 L11.7223685,8.81886614 C11.6106783,9.52299213 11.4512417,10.3988976 11.4494107,10.5151181 C11.4494107,10.7064567 11.5508192,10.7892283 11.78096,10.7892283 C11.8911009,10.7892283 11.976453,10.778315 12.0418051,10.7543622 L11.9134952,11.5731496" id="t" fill="#0C2D5A"></path>
                        <path d="M8.14350751,9.04762205 C8.14350751,9.51604724 8.36914131,9.83806299 8.88054976,10.0808504 C9.2722399,10.2662362 9.33280328,10.3210866 9.33280328,10.4891811 C9.33280328,10.7197795 9.16012723,10.823811 8.77716948,10.823811 C8.48843709,10.823811 8.21998638,10.7787402 7.91012723,10.678252 C7.91012723,10.678252 7.78336666,11.4933543 7.77731033,11.5319055 C7.99716948,11.580378 8.19336666,11.6245984 8.78407089,11.641748 C9.80519765,11.641748 10.2767469,11.2507087 10.2767469,10.4052756 C10.2767469,9.89674016 10.0792822,9.59853543 9.59463427,9.37459843 C9.18900047,9.18680315 9.14238075,9.14527559 9.14238075,8.9723622 C9.14238075,8.77237795 9.30308497,8.66948031 9.61590188,8.66948031 C9.80562019,8.66948031 10.0651977,8.69074016 10.3111131,8.7256063 L10.4488596,7.86770079 C10.1982962,7.82787402 9.81857793,7.79527559 9.59716948,7.79527559 C8.51477512,7.79527559 8.14026807,8.36418898 8.14350751,9.04762205" id="s" fill="#0C2D5A"></path>
                        <path d="M6.93787371,9.92962205 C6.83646526,9.91771654 6.79167652,9.91445669 6.72195821,9.91445669 C6.17350751,9.91445669 5.89590188,10.1035276 5.89590188,10.4772756 C5.89590188,10.7073071 6.03139483,10.8545669 6.24280328,10.8545669 C6.63702864,10.8545669 6.92111314,10.4769921 6.93787371,9.92962205 L6.93787371,9.92962205 Z M7.64153568,11.5775433 L6.83998638,11.5775433 L6.85829624,11.1944409 C6.6137892,11.4970394 6.28745117,11.641748 5.84421174,11.641748 C5.31984554,11.641748 4.96040892,11.2293071 4.96040892,10.6309134 C4.96040892,9.72977953 5.58562019,9.20508661 6.65900047,9.20508661 C6.76885962,9.20508661 6.909423,9.21514961 7.05336666,9.23385827 C7.08336666,9.11140157 7.09125399,9.05938583 7.09125399,8.99305512 C7.09125399,8.7484252 6.92266244,8.65729134 6.47083145,8.65729134 C5.99716948,8.65162205 5.60702864,8.77025197 5.44646526,8.82311811 C5.4566061,8.76188976 5.58069061,7.99129134 5.58069061,7.99129134 C6.06280328,7.84899213 6.38083145,7.79527559 6.73871878,7.79527559 C7.56956385,7.79527559 8.00956385,8.17100787 8.00871878,8.88023622 C8.01040892,9.07029921 7.97914131,9.30543307 7.93054976,9.61327559 C7.84646526,10.1485984 7.66618357,11.2983307 7.64153568,11.5775433 L7.64153568,11.5775433 Z" id="a" fill="#0C2D5A"></path>
                        <polyline id="m" fill="#0C2D5A" points="4.47407089 11.6353701 3.5066061 11.6353701 4.0609723 8.13855118 2.82336666 11.6353701 2.16393005 11.6353701 2.08238075 8.1588189 1.49984554 11.6353701 0.594211735 11.6353701 1.35069061 7.08661417 2.74209906 7.08661417 2.78083145 9.90255118 3.71970469 7.08661417 5.22238075 7.08661417 4.47407089 11.6353701"></polyline>
                        <path d="M28.313085,11.3519055 L27.3980146,11.3519055 L27.4433667,11.0076378 C27.1778737,11.2929449 26.905761,11.4161102 26.551254,11.4161102 C25.8480146,11.4161102 25.3829441,10.806378 25.3829441,9.88086614 C25.3829441,8.65034646 26.1042117,7.61314961 26.9571695,7.61314961 C27.3325216,7.61314961 27.6166061,7.76735433 27.881254,8.11771654 L28.0959019,6.80314961 L29.0501272,6.80314961 L28.313085,11.3519055 L28.313085,11.3519055 Z M26.885761,10.4971181 C27.3366061,10.4971181 27.6529441,9.98333858 27.6529441,9.25058268 C27.6529441,8.78045669 27.4728033,8.52519685 27.1401272,8.52519685 C26.7013948,8.52519685 26.3897047,9.04067717 26.3897047,9.76818898 C26.3897047,10.2524882 26.5567469,10.4971181 26.885761,10.4971181 L26.885761,10.4971181 Z" id="d-2" fill="#FFFFFE"></path>
                        <path d="M23.9597047,7.5515282 C23.8385779,8.69658332 23.6235075,9.8563786 23.4551977,11.0020006 L23.4111131,11.2508825 L24.3788596,11.2508825 C24.724916,8.98855183 24.8082962,8.54705576 25.3513948,8.60218962 C25.4377329,8.13915025 25.5985779,7.73365419 25.7185779,7.52927623 C25.3133667,7.44423686 25.0870286,7.67469356 24.7904089,8.11264631 C24.8140709,7.92315025 24.8567469,7.73932348 24.8487188,7.5515282 L23.9597047,7.5515282" id="r-2" fill="#FFFFFE"></path>
                        <path d="M22.4301272,9.64615748 C22.3291413,9.63425197 22.2843526,9.63099213 22.2147751,9.63099213 C21.6664653,9.63099213 21.3888596,9.82006299 21.3888596,10.193811 C21.3888596,10.4238425 21.5243526,10.5711024 21.7356202,10.5711024 C22.129423,10.5711024 22.41393,10.1935276 22.4301272,9.64615748 L22.4301272,9.64615748 Z M23.1343526,11.2940787 L22.3328033,11.2940787 L22.3509723,10.9109764 C22.1063244,11.2135748 21.7801272,11.3582835 21.3371695,11.3582835 C20.8123807,11.3582835 20.4533667,10.9458425 20.4533667,10.3474488 C20.4533667,9.44631496 21.0781554,8.92162205 22.1518174,8.92162205 C22.2615357,8.92162205 22.4018174,8.93168504 22.5456202,8.9503937 C22.5756202,8.82793701 22.5836484,8.77592126 22.5836484,8.70959055 C22.5836484,8.46496063 22.4156202,8.37382677 21.9633667,8.37382677 C21.4901272,8.36815748 21.1001272,8.4867874 20.9391413,8.53965354 C20.949423,8.4784252 21.0733667,7.70782677 21.0733667,7.70782677 C21.5556202,7.56552756 21.8733667,7.51181102 22.231254,7.51181102 C23.0620991,7.51181102 23.5023807,7.88754331 23.5013948,8.59677165 C23.5032258,8.78683465 23.4719582,9.0219685 23.4232258,9.32981102 C23.3392822,9.86513386 23.1591413,11.0148661 23.1343526,11.2940787 L23.1343526,11.2940787 Z" id="a-2" fill="#FFFFFE"></path>
                        <path d="M20.8791413,6.89768504 L20.7206906,7.88485039 C20.3751977,7.71009449 20.124916,7.63937008 19.8563244,7.63937008 C19.13393,7.63937008 18.6273103,8.34193701 18.6273103,9.34398425 C18.6273103,10.0343622 18.9678737,10.4514803 19.5304089,10.4514803 C19.7685779,10.4514803 20.0318174,10.3773543 20.3520991,10.218189 L20.1820991,11.2548189 C19.8259019,11.3526142 19.5953385,11.388189 19.3271695,11.388189 C18.2853385,11.388189 17.6364653,10.6344567 17.6364653,9.42420472 C17.6364653,7.7979685 18.5335075,6.66141732 19.8156202,6.66141732 C20.2381554,6.66141732 20.7371695,6.84155906 20.8791413,6.89768504" id="c-2" fill="#FFFFFE"></path>
                        <path d="M16.0729441,7.5515282 C15.951254,8.69658332 15.7359019,9.8563786 15.5678737,11.0020006 L15.5237892,11.2508825 L16.4918174,11.2508825 C16.8381554,8.98855183 16.921254,8.54705576 17.4635075,8.60218962 C17.5504089,8.13915025 17.7116765,7.73365419 17.831254,7.52927623 C17.4263244,7.44423686 17.1997047,7.67469356 16.9036484,8.11264631 C16.9270286,7.92315025 16.9699864,7.73932348 16.9613948,7.5515282 L16.0729441,7.5515282" id="r-3" fill="#FFFFFE"></path>
                        <path d="M15.1909723,11.2086142 C14.8605498,11.310378 14.541254,11.3585669 14.20393,11.3582835 C13.1270286,11.3575748 12.5660427,10.7913543 12.5660427,9.70795276 C12.5660427,8.44299213 13.2798455,7.51181102 14.2487188,7.51181102 C15.0423807,7.51181102 15.5485779,8.03310236 15.5485779,8.85132283 C15.5485779,9.12245669 15.5133667,9.38707087 15.4302681,9.7608189 L13.514916,9.7608189 C13.4498455,10.2975591 13.7913948,10.5214961 14.3506906,10.5214961 C14.6947751,10.5214961 15.0054793,10.4497795 15.3511131,10.2882047 L15.1909723,11.2086142 L15.1909723,11.2086142 Z M14.6504089,9.01474016 C14.6556202,8.93735433 14.7522399,8.35440945 14.2026624,8.35440945 C13.8964653,8.35440945 13.6774512,8.58982677 13.5881554,9.01474016 L14.6504089,9.01474016 L14.6504089,9.01474016 Z" id="e-2" fill="#FFFFFE"></path>
                        <path d="M12.1951854,11.289685 C11.9305375,11.3735906 11.7240586,11.4100157 11.5002558,11.4100157 C11.0056079,11.4100157 10.7354671,11.1238583 10.7354671,10.5976063 C10.7287065,10.4334803 10.8068755,10.0041732 10.868284,9.61129134 C10.9240586,9.26532283 11.2878614,7.08661417 11.2878614,7.08661417 L12.2495516,7.08661417 L12.1371572,7.64645669 L12.6308192,7.64645669 L12.4994107,8.53540157 L12.0040586,8.53540157 C11.8923685,9.23952756 11.7329319,10.1154331 11.7311009,10.2316535 C11.7311009,10.4229921 11.8325093,10.5057638 12.0626502,10.5057638 C12.172791,10.5057638 12.2581431,10.4948504 12.3234952,10.4708976 L12.1951854,11.289685" id="t-2" fill="#FFFFFE"></path>
                        <path d="M8.42519765,8.76415748 C8.42519765,9.23258268 8.65083145,9.55459843 9.1622399,9.79738583 C9.55393005,9.98277165 9.61449343,10.037622 9.61449343,10.2057165 C9.61449343,10.436315 9.44181737,10.5403465 9.05885962,10.5403465 C8.77012723,10.5403465 8.50167652,10.4952756 8.19181737,10.3947874 C8.19181737,10.3947874 8.06505681,11.2098898 8.05900047,11.2484409 C8.27885962,11.2969134 8.47505681,11.3411339 9.06576103,11.3582835 C10.0868878,11.3582835 10.5584371,10.9672441 10.5584371,10.121811 C10.5584371,9.61327559 10.3609723,9.31507087 9.87632441,9.09113386 C9.47069061,8.90333858 9.42407089,8.86181102 9.42407089,8.68889764 C9.42407089,8.48891339 9.58477512,8.38601575 9.89759202,8.38601575 C10.0873103,8.38601575 10.3468878,8.40727559 10.5928033,8.44214173 L10.7305498,7.58423622 C10.4799864,7.54440945 10.1002681,7.51181102 9.87885962,7.51181102 C8.79646526,7.51181102 8.42195821,8.08072441 8.42519765,8.76415748" id="s-2" fill="#FFFFFE"></path>
                        <path d="M7.21956385,9.64615748 C7.1181554,9.63425197 7.07336666,9.63099213 7.00364835,9.63099213 C6.45519765,9.63099213 6.17759202,9.82006299 6.17759202,10.193811 C6.17759202,10.4238425 6.31308497,10.5711024 6.52449343,10.5711024 C6.91871878,10.5711024 7.20280328,10.1935276 7.21956385,9.64615748 L7.21956385,9.64615748 Z M7.92322582,11.2940787 L7.12167652,11.2940787 L7.13998638,10.9109764 C6.89547934,11.2135748 6.56914131,11.3582835 6.12590188,11.3582835 C5.60153568,11.3582835 5.24209906,10.9458425 5.24209906,10.3474488 C5.24209906,9.44631496 5.86731033,8.92162205 6.94069061,8.92162205 C7.05054976,8.92162205 7.19111314,8.93168504 7.33505681,8.9503937 C7.36505681,8.82793701 7.37294413,8.77592126 7.37294413,8.70959055 C7.37294413,8.46496063 7.20435258,8.37382677 6.75252159,8.37382677 C6.27885962,8.36815748 5.88871878,8.4867874 5.7281554,8.53965354 C5.73829624,8.4784252 5.86238075,7.70782677 5.86238075,7.70782677 C6.34449343,7.56552756 6.66252159,7.51181102 7.02040892,7.51181102 C7.85125399,7.51181102 8.29125399,7.88754331 8.29040892,8.59677165 C8.29209906,8.78683465 8.26083145,9.0219685 8.2122399,9.32981102 C8.1281554,9.86513386 7.94787371,11.0148661 7.92322582,11.2940787 L7.92322582,11.2940787 Z" id="a-3" fill="#FFFFFE"></path>
                        <polyline id="m-2" fill="#FFFFFE" points="4.75576103 11.3519055 3.78829624 11.3519055 4.34266244 7.85508661 3.10505681 11.3519055 2.44562019 11.3519055 2.36407089 7.87535433 1.78153568 11.3519055 0.875901876 11.3519055 1.63238075 6.80314961 3.0237892 6.80314961 3.06252159 9.61908661 4.00139483 6.80314961 5.50407089 6.80314961 4.75576103 11.3519055"></polyline>
                    </g>
                </g>
            </g>
        </g>
    </g>
</svg>