<?xml version="1.0" encoding="UTF-8"?>
<svg width="62px" height="30px" viewBox="0 0 62 30" version="1.1" xmlns="http://www.w3.org/2000/svg" xmlns:xlink="http://www.w3.org/1999/xlink">
    <!-- Generator: Sketch 47.1 (45422) - http://www.bohemiancoding.com/sketch -->
    <title>cc-logo-paypal-credit@2x</title>
    <desc>Created with Sketch.</desc>
    <defs>
        <polygon id="path-1" points="6.68244707 0.00757894737 0.00622516556 0.00757894737 0.00622516556 16 6.68244707 16 13.358669 16 13.358669 0.00757894737"></polygon>
    </defs>
    <g id="Page-1" stroke="none" stroke-width="1" fill="none" fill-rule="evenodd">
        <g id="Artboard" transform="translate(-91.000000, -27.000000)">
            <g id="cc-logo-paypal-credit" transform="translate(91.000000, 27.000000)">
                <g id="card" fill="#FFFFFF">
                    <rect x="0" y="0" width="62" height="30" rx="4"></rect>
                </g>
                <g id="paypal-credit" transform="translate(8.000000, 7.000000)">
                    <g id="paypal-credit-seeklogo.com">
                        <g id="Group-5">
                            <mask id="mask-2" fill="white">
                                <use xlink:href="#path-1"></use>
                            </mask>
                            <g id="Clip-2"></g>
                            <path d="M12.0384327,4.07063158 C12.2307903,2.82663158 12.0370839,1.98010526 11.3738962,1.21336842 C10.6436843,0.369263158 9.32457174,0.00757894737 7.63682561,0.00757894737 L2.73762031,0.00757894737 C2.39264238,0.00757894737 2.09902208,0.262210526 2.04527815,0.607894737 L0.00518763797,13.7324211 C-0.0350684327,13.9913684 0.162269316,14.2255789 0.420613687,14.2255789 L3.44511038,14.2255789 L3.23635982,15.5686316 C3.20118764,15.7951579 3.37372848,16 3.59980574,16 L6.14911479,16 C6.45082781,16 6.70771965,15.7772632 6.75471965,15.4748421 L6.77982781,15.3433684 L7.25999558,12.2536842 L7.29101766,12.0829474 C7.33801766,11.7805263 7.59490949,11.5577895 7.89672627,11.5577895 L8.27801766,11.5577895 C10.7477483,11.5577895 12.681596,10.5397895 13.2466336,7.59578947 C13.4827748,6.36557895 13.3606578,5.33873684 12.7362737,4.61684211 C12.5474437,4.39852632 12.3124437,4.21789474 12.0384327,4.07063158" id="Fill-1" fill="#2890C3" mask="url(#mask-2)"></path>
                            <path d="M12.0384327,4.07063158 C12.2307903,2.82663158 12.0370839,1.98010526 11.3738962,1.21336842 C10.6436843,0.369263158 9.32457174,0.00757894737 7.63682561,0.00757894737 L2.73762031,0.00757894737 C2.39264238,0.00757894737 2.09902208,0.262210526 2.04527815,0.607894737 L0.00518763797,13.7324211 C-0.0350684327,13.9913684 0.162269316,14.2255789 0.420613687,14.2255789 L3.44511038,14.2255789 L4.20489183,9.33778947 L4.18133996,9.49105263 C4.23508389,9.14536842 4.52631788,8.89073684 4.87119205,8.89073684 L6.30868653,8.89073684 C9.13190287,8.89073684 11.3424592,7.72715789 11.9883201,4.36178947 C12.0075143,4.26210526 12.0238035,4.16557895 12.0384327,4.07063158" id="Fill-3" fill="#20274F" mask="url(#mask-2)"></path>
                            <path d="M5.02101104,4.08715789 C5.0533819,3.87926316 5.1849404,3.70894737 5.3619426,3.62284211 C5.44245475,3.58378947 5.53240839,3.562 5.62671965,3.562 L9.46702428,3.562 C9.92198013,3.562 10.3461214,3.59221053 10.7339492,3.65557895 C10.8447572,3.67368421 10.95266,3.69452632 11.0574503,3.71810526 C11.1621369,3.74168421 11.2638146,3.768 11.3622759,3.79726316 C11.4115585,3.81178947 11.460011,3.82715789 11.5075298,3.84315789 C11.6980199,3.90726316 11.8753333,3.98294737 12.0384327,4.07063158 C12.2307903,2.82663158 12.0370839,1.98010526 11.3738962,1.21336842 C10.6436843,0.369263158 9.32457174,0.00757894737 7.63682561,0.00757894737 L2.73762031,0.00757894737 C2.39264238,0.00757894737 2.09902208,0.262210526 2.04527815,0.607894737 L0.00518763797,13.7324211 C-0.0349646799,13.9913684 0.162269316,14.2255789 0.420613687,14.2255789 L3.44511038,14.2255789 L5.02101104,4.08715789" id="Fill-4" fill="#28346A" mask="url(#mask-2)"></path>
                        </g>
                        <path d="M34.0636909,13.5477895 L34.4722693,13.5477895 C35.5587682,13.5477895 36.5802141,12.9448421 36.8030751,11.5598947 C36.9980265,10.288 36.2830662,9.572 35.1130464,9.572 L34.8130971,9.572 C34.7397439,9.572 34.6773885,9.626 34.665872,9.69947368 L34.0636909,13.5477895 Z M33.0732671,8.22673684 C33.0928764,8.10073684 33.1998455,8.008 33.3255938,8.008 L35.6887704,8.008 C37.6388035,8.008 39.0037748,9.56252632 38.6972892,11.5598947 C38.3816733,13.5572632 36.5244989,15.1117895 34.5838035,15.1117895 L32.1766358,15.1117895 C32.0851258,15.1117895 32.0151965,15.0288421 32.0295143,14.9370526 L33.0732671,8.22673684 L33.0732671,8.22673684 Z" id="Fill-6" fill="#28346A"></path>
                        <path d="M30.0129757,9.79052632 L29.8614967,10.7590526 L31.7395254,10.7590526 C31.8309316,10.7590526 31.9008609,10.8418947 31.8866468,10.9335789 L31.7060132,12.1038947 C31.6866115,12.2301053 31.5795386,12.3230526 31.4536865,12.3230526 L29.8375298,12.3230526 C29.7121965,12.3230526 29.6053311,12.4152632 29.5854106,12.5408421 L29.4251126,13.5477895 L31.414468,13.5477895 C31.5059779,13.5477895 31.5758035,13.6306316 31.5616932,13.7224211 L31.3810596,14.8927368 C31.3615541,15.0188421 31.2544812,15.1117895 31.1287329,15.1117895 L27.5379536,15.1117895 C27.4464437,15.1117895 27.3765143,15.0288421 27.3908322,14.9370526 L28.434585,8.22673684 C28.4541943,8.10073684 28.5611634,8.008 28.6869117,8.008 L32.278106,8.008 C32.3696159,8.008 32.4394415,8.09084211 32.4253311,8.18252632 L32.2445938,9.35294737 C32.2251921,9.47905263 32.1180155,9.572 31.9922671,9.572 L30.2653024,9.572 C30.1396578,9.572 30.0326887,9.66463158 30.0129757,9.79052632" id="Fill-7" fill="#28346A"></path>
                        <path d="M40.286574,15.1117895 L38.8592472,15.1117895 C38.7676336,15.1117895 38.6978079,15.0288421 38.7120221,14.9370526 L39.7558786,8.22673684 C39.7753841,8.10073684 39.882457,8.008 40.0081015,8.008 L41.435532,8.008 C41.5270419,8.008 41.5969713,8.09094737 41.5826534,8.18273684 L40.5389007,14.8930526 C40.5192914,15.0190526 40.4123223,15.1117895 40.286574,15.1117895" id="Fill-8" fill="#28346A"></path>
                        <g id="Group-12" transform="translate(21.269316, 8.000000)" fill="#28346A">
                            <path d="M2.49971523,3.19242105 L2.67609492,3.19242105 C3.27039073,3.19242105 3.95401766,3.07884211 4.07820971,2.30684211 C4.20250552,1.53452632 3.80596247,1.42357895 3.17099558,1.42126316 L2.91316998,1.42126316 C2.83545916,1.42126316 2.7692649,1.47852632 2.75702208,1.55642105 L2.49971523,3.19242105 Z M5.62391832,7.11178947 L3.75346358,7.11178947 C3.67388521,7.11178947 3.60136203,7.06547368 3.56701987,6.99273684 L2.33256954,4.37957895 L2.31399779,4.37957895 L1.91444592,6.93484211 C1.89857174,7.03673684 1.81193819,7.11178947 1.71026049,7.11178947 L0.241121413,7.11178947 C0.149611479,7.11178947 0.0796821192,7.02884211 0.094,6.93705263 L1.14418543,0.185052632 C1.1600596,0.0830526316 1.24679691,0.008 1.34847461,0.008 L3.89249227,0.008 C5.27603532,0.008 6.22329801,0.676842105 5.99109934,2.19378947 C5.83329139,3.17357895 5.16470861,4.02147368 4.14326269,4.20052632 L5.75122296,6.88210526 C5.81160706,6.98273684 5.74012141,7.11178947 5.62391832,7.11178947 L5.62391832,7.11178947 Z" id="Fill-9"></path>
                            <path d="M22.8777947,7.11178947 L21.450468,7.11178947 C21.3588543,7.11178947 21.2890287,7.02873684 21.3033466,6.93705263 L22.1395938,1.572 L20.8094834,1.572 C20.7179735,1.572 20.6480442,1.48915789 20.6622583,1.39736842 L20.8429956,0.227052632 C20.8623974,0.100947368 20.9694702,0.008 21.0953223,0.008 L25.5311678,0.008 C25.6226777,0.008 25.6926071,0.0908421053 25.6783929,0.182526316 L25.4977594,1.35294737 C25.4782539,1.47905263 25.371181,1.572 25.2454327,1.572 L23.9596247,1.572 L23.1301214,6.89315789 C23.1105121,7.01905263 23.0034393,7.11178947 22.8777947,7.11178947" id="Fill-11"></path>
                        </g>
                        <path d="M21.4561744,10.0267368 C21.4351126,10.1585263 21.2761634,10.2058947 21.1843422,10.1103158 C20.8724614,9.78610526 20.4148079,9.61484211 19.9221898,9.61484211 C18.808819,9.61484211 17.927543,10.4807368 17.7512671,11.582 C17.5841214,12.7022105 18.2150419,13.5116842 19.3468808,13.5116842 C19.8135607,13.5116842 20.3086689,13.3315789 20.7200486,13.0305263 C20.8335541,12.9474737 20.9894945,13.0469474 20.9670839,13.1871579 L20.708117,14.8126316 C20.6926578,14.9093684 20.6235585,14.9885263 20.5309073,15.0161053 C19.97666,15.1812632 19.5510662,15.3003158 19.0315762,15.3003158 C16.0134084,15.3003158 15.5307506,12.6844211 15.6861722,11.5725263 C16.1223488,8.45452632 18.6160464,7.74021053 20.1447395,7.82631579 C20.6373576,7.854 21.0786181,7.92042105 21.5108521,8.08526316 C21.6505033,8.13852632 21.733713,8.28463158 21.7099536,8.434 L21.4561744,10.0267368" id="Fill-13" fill="#28346A"></path>
                        <path d="M30.7043841,2.394 C30.6182693,2.96821053 30.1860353,2.96821053 29.7679117,2.96821053 L29.5301104,2.96821053 L29.6969448,1.89621053 C29.7070088,1.83136842 29.7621015,1.78368421 29.8267395,1.78368421 L29.9357837,1.78368421 C30.2203775,1.78368421 30.4892009,1.78368421 30.6277108,1.94810526 C30.710713,2.04663158 30.7358212,2.19242105 30.7043841,2.394 Z M30.5225055,0.896105263 L28.9457748,0.896105263 C28.8379757,0.896105263 28.7462583,0.975578947 28.7294503,1.08368421 L28.0918896,5.18526316 C28.0792318,5.26610526 28.1409647,5.33936842 28.2216843,5.33936842 L29.0306446,5.33936842 C29.1060728,5.33936842 29.1702958,5.28357895 29.1821236,5.208 L29.3628609,4.04515789 C29.3796689,3.93715789 29.4714901,3.85757895 29.5792892,3.85757895 L30.0781325,3.85757895 C31.1166976,3.85757895 31.7160773,3.34768421 31.8727439,2.33705263 C31.9432958,1.89505263 31.8755453,1.54778947 31.6715673,1.30463158 C31.4473576,1.03736842 31.0499845,0.896105263 30.5225055,0.896105263 L30.5225055,0.896105263 Z" id="Fill-14" fill="#2890C3"></path>
                        <path d="M19.4590375,2.394 C19.372819,2.96821053 18.940585,2.96821053 18.5225651,2.96821053 L18.28466,2.96821053 L18.4514945,1.89621053 C18.4615585,1.83136842 18.5166512,1.78368421 18.5812892,1.78368421 L18.6903333,1.78368421 C18.9749272,1.78368421 19.2437506,1.78368421 19.3823642,1.94810526 C19.4652627,2.04663158 19.4903709,2.19242105 19.4590375,2.394 Z M19.2770552,0.896105263 L17.7003245,0.896105263 C17.5925254,0.896105263 17.5008079,0.975578947 17.484,1.08368421 L16.8464393,5.18526316 C16.8338852,5.26610526 16.8955143,5.33936842 16.976234,5.33936842 L17.729064,5.33936842 C17.8368631,5.33936842 17.9286843,5.25978947 17.9454923,5.15168421 L18.1175143,4.04515789 C18.1343223,3.93715789 18.2260397,3.85757895 18.3338389,3.85757895 L18.8327859,3.85757895 C19.8712472,3.85757895 20.4706269,3.34768421 20.6272936,2.33705263 C20.6978455,1.89505263 20.6301987,1.54778947 20.4262208,1.30463158 C20.2019073,1.03736842 19.8045342,0.896105263 19.2770552,0.896105263 L19.2770552,0.896105263 Z" id="Fill-15" fill="#28346A"></path>
                        <path d="M22.9373488,3.86652632 C22.8645143,4.30410526 22.5220265,4.598 22.0852274,4.598 C21.8663091,4.598 21.6909669,4.52652632 21.5782914,4.39115789 C21.4666534,4.25705263 21.4245298,4.066 21.4600132,3.85315789 C21.5279713,3.41947368 21.8759581,3.11621053 22.306117,3.11621053 C22.5204702,3.11621053 22.6945673,3.18831579 22.8094216,3.32484211 C22.925106,3.46242105 22.9705497,3.65473684 22.9373488,3.86652632 Z M23.9896093,2.37568421 L23.2346004,2.37568421 C23.1699625,2.37568421 23.1148698,2.42336842 23.1048057,2.48821053 L23.0716049,2.70242105 L23.0187947,2.62484211 C22.8552804,2.384 22.4909007,2.30357895 22.1270397,2.30357895 C21.2929713,2.30357895 20.5803974,2.94484211 20.4417837,3.84421053 C20.3695717,4.29294737 20.4720795,4.72168421 20.7228499,5.02094737 C20.953181,5.296 21.2819735,5.41042105 21.6736402,5.41042105 C22.3459581,5.41042105 22.7188455,4.97221053 22.7188455,4.97221053 L22.6851258,5.18515789 C22.6725717,5.26610526 22.7342009,5.33936842 22.8150243,5.33936842 L23.4949161,5.33936842 C23.6027152,5.33936842 23.6944327,5.25978947 23.7112406,5.15178947 L24.119404,2.52978947 C24.1319581,2.44884211 24.0703289,2.37568421 23.9896093,2.37568421 L23.9896093,2.37568421 Z" id="Fill-16" fill="#28346A"></path>
                        <path d="M34.1827991,3.86652632 C34.1099647,4.30410526 33.7674768,4.598 33.3306777,4.598 C33.1116556,4.598 32.9364172,4.52652632 32.8237417,4.39115789 C32.712,4.25705263 32.6699801,4.066 32.7054636,3.85315789 C32.7734216,3.41947368 33.1213046,3.11621053 33.5514636,3.11621053 C33.7659205,3.11621053 33.9400177,3.18831579 34.054872,3.32484211 C34.1704525,3.46242105 34.216,3.65473684 34.1827991,3.86652632 Z M35.2349558,2.37568421 L34.4800508,2.37568421 C34.4153091,2.37568421 34.3602163,2.42336842 34.3502561,2.48821053 L34.3169514,2.70242105 L34.264245,2.62484211 C34.1007307,2.384 33.736351,2.30357895 33.3724901,2.30357895 C32.5384216,2.30357895 31.8258477,2.94484211 31.6871302,3.84421053 C31.6150221,4.29294737 31.717426,4.72168421 31.9681965,5.02094737 C32.1986313,5.296 32.5274238,5.41042105 32.9190905,5.41042105 C33.5914084,5.41042105 33.9642958,4.97221053 33.9642958,4.97221053 L33.9305762,5.18515789 C33.9179183,5.26610526 33.9796512,5.33936842 34.0603709,5.33936842 L34.7402627,5.33936842 C34.8480618,5.33936842 34.939883,5.25978947 34.9566909,5.15178947 L35.3648543,2.52978947 C35.3774084,2.44884211 35.3157792,2.37568421 35.2349558,2.37568421 L35.2349558,2.37568421 Z" id="Fill-17" fill="#2890C3"></path>
                        <path d="M28.0106512,2.37568421 L27.2518035,2.37568421 C27.1791766,2.37568421 27.1113223,2.41221053 27.0705475,2.47315789 L26.0237859,4.03726316 L25.5801391,2.53421053 C25.5524371,2.44021053 25.4670486,2.37568421 25.3702472,2.37568421 L24.6243687,2.37568421 C24.5343113,2.37568421 24.4709183,2.46557895 24.4999691,2.55210526 L25.3354901,5.04031579 L24.5495629,6.16536842 C24.4879338,6.25368421 24.5501854,6.37578947 24.6568433,6.37578947 L25.4149647,6.37578947 C25.4867616,6.37578947 25.5540971,6.34010526 25.5949757,6.28021053 L28.1186578,2.58505263 C28.1790419,2.49663158 28.1166865,2.37568421 28.0106512,2.37568421" id="Fill-18" fill="#28346A"></path>
                        <path d="M36.1248433,1.00863158 L35.4777373,5.18526316 C35.4651832,5.26621053 35.5268124,5.33936842 35.607532,5.33936842 L36.2583731,5.33936842 C36.3661722,5.33936842 36.4579934,5.25978947 36.4748013,5.15178947 L37.112777,1.05021053 C37.1254349,0.969263158 37.063702,0.896105263 36.9829823,0.896105263 L36.254638,0.896105263 C36.19,0.896105263 36.1349073,0.943789474 36.1248433,1.00863158" id="Fill-19" fill="#2890C3"></path>
                    </g>
                </g>
            </g>
        </g>
    </g>
</svg>