<?xml version="1.0" encoding="UTF-8"?>
<svg width="48px" height="30px" viewBox="0 0 48 30" version="1.1" xmlns="http://www.w3.org/2000/svg" xmlns:xlink="http://www.w3.org/1999/xlink">
    <!-- Generator: Sketch 47.1 (45422) - http://www.bohemiancoding.com/sketch -->
    <title>cc-logo-paypal@2x</title>
    <desc>Created with Sketch.</desc>
    <defs></defs>
    <g id="Page-1" stroke="none" stroke-width="1" fill="none" fill-rule="evenodd">
        <g id="Artboard" transform="translate(-33.000000, -27.000000)">
            <g id="cc-logo-paypal" transform="translate(33.000000, 27.000000)">
                <g id="paypal-icon">
                    <g id="card" fill="#2890C3">
                        <rect x="0" y="0" width="48" height="30" rx="4"></rect>
                    </g>
                    <g id="Logo" transform="translate(9.000000, 11.000000)" fill="#FFFFFF">
                        <path d="M28.5253829,0.469771079 L27.5709153,6.74374408 C27.5523237,6.86518381 27.6431825,6.97516111 27.7622286,6.97516111 L28.7223936,6.97516111 C28.8813217,6.97516111 29.0168603,6.85558015 29.0414491,6.69324745 L29.9827227,0.53203992 C30.0013143,0.41060019 29.9104555,0.300622884 29.7911095,0.300622884 L28.7169961,0.300622884 C28.6213394,0.300622884 28.5400762,0.372185582 28.5253829,0.469771079" id="l"></path>
                        <path d="M25.6607806,4.76260358 C25.5531293,5.41998906 25.0481581,5.86144726 24.40375,5.86144726 C24.0807963,5.86144726 23.8220135,5.75394832 23.6558888,5.55072264 C23.4909635,5.34935575 23.4291915,5.06217557 23.4813678,4.74277669 C23.5815225,4.09096752 24.0948899,3.63556853 24.7294025,3.63556853 C25.0457592,3.63556853 25.3024429,3.74399686 25.4718661,3.94908131 C25.6424889,4.15571472 25.7096584,4.44444388 25.6607806,4.76260358 M27.2128775,2.52309386 L26.099182,2.52309386 C26.0038252,2.52309386 25.922562,2.59465656 25.9075688,2.69224206 L25.8586909,3.01380951 L25.7807262,2.8973265 C25.5396354,2.53579547 25.001979,2.41466553 24.4652222,2.41466553 C23.2348795,2.41466553 22.1838556,3.3781287 21.9793483,4.7291457 C21.8728965,5.40326012 22.024028,6.0473244 22.3940604,6.49683728 C22.7338065,6.90979432 23.2186868,7.08173067 23.7965251,7.08173067 C24.7884757,7.08173067 25.3384266,6.4237256 25.3384266,6.4237256 L25.2886491,6.74343428 C25.2700576,6.86487401 25.3609164,6.97485132 25.4802623,6.97485132 L26.4830081,6.97485132 C26.642236,6.97485132 26.7774747,6.85558015 26.8023634,6.69324745 L27.4044907,2.7545109 C27.4230822,2.63307117 27.3319235,2.52309386 27.2128775,2.52309386" id="a"></path>
                        <path d="M20.5298049,2.55066564 C20.4026625,3.41313556 19.7651513,3.41313556 19.1483307,3.41313556 L18.7974897,3.41313556 L19.0436781,1.80281995 C19.0583715,1.70554425 19.1396347,1.63398155 19.2349915,1.63398155 L19.3960185,1.63398155 C19.8158283,1.63398155 20.2122488,1.63398155 20.4167561,1.88088835 C20.5391007,2.02866068 20.575984,2.2479957 20.5298049,2.55066564 M20.2614265,0.300313088 L17.9356801,0.300313088 C17.7764522,0.300313088 17.6412134,0.419894047 17.6163247,0.582226748 L16.6759507,6.74343428 C16.6573591,6.86487401 16.7485178,6.97485132 16.867264,6.97485132 L18.0607234,6.97485132 C18.171973,6.97485132 18.2667301,6.8912066 18.2841222,6.77782155 L18.5510013,5.03088625 C18.5755902,4.86855355 18.7111288,4.74897259 18.8700568,4.74897259 L19.6059234,4.74897259 C21.1379294,4.74897259 22.0222288,3.98315878 22.2531242,2.46485236 C22.3571771,1.80127098 22.2573223,1.27957581 21.9565586,0.914327234 C21.6258084,0.512832616 21.039574,0.300313088 20.2614265,0.300313088" id="P"></path>
                        <path d="M16.5560051,2.52309386 L15.4366121,2.52309386 C15.3295606,2.52309386 15.229406,2.57792762 15.1694332,2.66962701 L13.6251327,5.01911403 L12.9708291,2.76132639 C12.9297478,2.62005977 12.8038048,2.52309386 12.6610695,2.52309386 L11.5608679,2.52309386 C11.428028,2.52309386 11.3344704,2.65816458 11.377351,2.78796878 L12.6097927,6.52595803 L11.4505178,8.21589101 C11.359659,8.34848337 11.4514174,8.53188214 11.6088461,8.53188214 L12.7270396,8.53188214 C12.8328916,8.53188214 12.9321467,8.47828757 12.9927192,8.38844695 L16.7152329,2.83753602 C16.8042926,2.70463387 16.7125341,2.52309386 16.5560051,2.52309386" id="y"></path>
                        <path d="M9.07229519,4.76260358 C8.96464395,5.41998906 8.45967271,5.86144726 7.81526463,5.86144726 C7.49231092,5.86144726 7.23352815,5.75394832 7.06740341,5.55072264 C6.90277798,5.34935575 6.8407061,5.06217557 6.89288247,4.74277669 C6.9930371,4.09096752 7.50640454,3.63556853 8.1409171,3.63556853 C8.45727379,3.63556853 8.71395752,3.74399686 8.88338077,3.94908131 C9.05400347,4.15571472 9.12117305,4.44444388 9.07229519,4.76260358 M10.6243921,2.52309386 L9.51069659,2.52309386 C9.41533979,2.52309386 9.3340766,2.59465656 9.31908339,2.69224206 L9.27020553,3.01380951 L9.19254072,2.8973265 C8.95115007,2.53579547 8.41349363,2.41466553 7.87673678,2.41466553 C6.64639413,2.41466553 5.59537024,3.3781287 5.39086289,4.7291457 C5.28441111,5.40326012 5.43554265,6.0473244 5.80557502,6.49683728 C6.14532111,6.90979432 6.63020146,7.08173067 7.2080397,7.08173067 C8.19999034,7.08173067 8.74994122,6.4237256 8.74994122,6.4237256 L8.70016376,6.74343428 C8.68157219,6.86487401 8.77243103,6.97485132 8.89177696,6.97485132 L9.89452272,6.97485132 C10.0537506,6.97485132 10.1889893,6.85558015 10.213878,6.69324745 L10.8160053,2.7545109 C10.8345969,2.63307117 10.7434382,2.52309386 10.6243921,2.52309386" id="a"></path>
                        <path d="M3.94131953,2.55066564 C3.81417713,3.41313556 3.17666592,3.41313556 2.55984534,3.41313556 L2.20900427,3.41313556 L2.45519275,1.80281995 C2.46988609,1.70554425 2.55114928,1.63398155 2.64650609,1.63398155 L2.80753314,1.63398155 C3.22734296,1.63398155 3.62376339,1.63398155 3.82827074,1.88088835 C3.95061532,2.02866068 3.98749861,2.2479957 3.94131953,2.55066564 M3.67294111,0.300313088 L1.34719468,0.300313088 C1.18796681,0.300313088 1.05272807,0.419894047 1.02783934,0.582226748 L0.0874653365,6.74343428 C0.0688737585,6.86487401 0.159732599,6.97485132 0.278778671,6.97485132 L1.38947552,6.97485132 C1.54840353,6.97485132 1.68364226,6.85527036 1.70853099,6.69324745 L1.96251593,5.03088625 C1.9871048,4.86855355 2.1226434,4.74897259 2.2815714,4.74897259 L3.01743805,4.74897259 C4.54944405,4.74897259 5.43374346,3.98315878 5.66463886,2.46485236 C5.76869173,1.80127098 5.66883696,1.27957581 5.36807321,0.914327234 C5.03732304,0.512832616 4.45108861,0.300313088 3.67294111,0.300313088" id="P"></path>
                    </g>
                </g>
            </g>
        </g>
    </g>
</svg>