<?xml version="1.0" encoding="UTF-8"?>
<svg width="48px" height="30px" viewBox="0 0 48 30" version="1.1" xmlns="http://www.w3.org/2000/svg" xmlns:xlink="http://www.w3.org/1999/xlink">
    <!-- Generator: Sketch 47.1 (45422) - http://www.bohemiancoding.com/sketch -->
    <title>cc-logo-visa@2x</title>
    <desc>Created with Sketch.</desc>
    <defs></defs>
    <g id="Page-1" stroke="none" stroke-width="1" fill="none" fill-rule="evenodd">
        <g id="Artboard" transform="translate(-165.000000, -27.000000)">
            <g id="cc-logo-visa" transform="translate(165.000000, 27.000000)">
                <g id="visa-icon">
                    <g id="card" fill="#0066B2">
                        <rect x="0" y="0" width="48" height="30" rx="4"></rect>
                    </g>
                    <g id="logo" transform="translate(9.000000, 10.000000)">
                        <g id="registered" transform="translate(28.622525, 7.977371)" fill="#FFFFFF">
                            <path d="M0.0752363521,0.530475714 C0.0752363521,0.266872245 0.289029092,0.0532343586 0.552589977,0.0532343586 C0.81661817,0.0532343586 1.0299436,0.266872245 1.0299436,0.530475714 C1.0299436,0.793845699 0.81661817,1.00771707 0.552589977,1.00771707 C0.289029092,1.00771707 0.0752363521,0.793845699 0.0752363521,0.530475714 L0.0752363521,0.530475714 Z M0.552589977,0.892842927 C0.753531787,0.892842927 0.915687155,0.730571527 0.915687155,0.530475714 C0.915687155,0.329679449 0.753531787,0.167875017 0.552589977,0.167875017 C0.352582781,0.167875017 0.19019376,0.329679449 0.19019376,0.530475714 C0.19019376,0.730571527 0.352582781,0.892842927 0.552589977,0.892842927 L0.552589977,0.892842927 Z M0.488335329,0.739677404 L0.390668263,0.739677404 L0.390668263,0.320573572 L0.56777744,0.320573572 C0.604694656,0.320573572 0.642079179,0.32104054 0.674790636,0.341587134 C0.70867036,0.365402505 0.727829928,0.404861306 0.727829928,0.446421464 C0.727829928,0.494285689 0.700492496,0.538647655 0.655631068,0.554991537 L0.73226934,0.739677404 L0.623620571,0.739677404 L0.560066882,0.573670259 L0.488335329,0.573670259 L0.488335329,0.739677404 L0.488335329,0.739677404 Z M0.488335329,0.501990662 L0.54207558,0.501990662 C0.562403415,0.501990662 0.584133169,0.503858535 0.601890817,0.494285689 C0.618012892,0.483778908 0.62642441,0.46416625 0.62642441,0.445487527 C0.62642441,0.430077581 0.616610973,0.411398859 0.60282543,0.403226918 C0.585535088,0.393187105 0.558431309,0.395288461 0.540206354,0.395288461 L0.488335329,0.395288461 L0.488335329,0.501990662 L0.488335329,0.501990662 Z"></path>
                        </g>
                        <path d="M26.3413853,9.01495306 L26.0709778,7.707218 L23.1371689,7.707218 L22.6562352,9.01495306 L20.2511898,9.01495306 L23.6922953,0.865088261 C23.6922953,0.865088261 23.901315,0.209162776 24.7581077,0.209162776 L26.6129227,0.209162776 L28.4602054,9.01495306 L26.3413853,9.01495306 Z M23.802266,5.90033598 L25.6970019,5.90033598 L25.0145806,2.60424494 L23.802266,5.90033598 Z" id="a" fill="#FFFFFF"></path>
                        <path d="M20.4312105,2.32660848 L20.7607461,0.435537516 C20.7607461,0.435537516 19.7442699,0.051635891 18.6852364,0.051635891 C17.5399588,0.051635891 14.8204423,0.548911972 14.8204423,2.9668187 C14.8204423,5.24216546 18.0126071,5.27060262 18.0126071,6.46458905 C18.0126071,7.65932384 15.1496013,7.44604516 14.2043048,6.69246049 L13.8615877,8.6692171 C13.8615877,8.6692171 14.891622,9.16686735 16.4666141,9.16686735 C18.040853,9.16686735 20.4172758,8.35640837 20.4172758,6.1521545 C20.4172758,3.86258915 17.1964885,3.6489363 17.1964885,2.65363579 C17.1964885,1.65796111 19.44411,1.78592832 20.4312105,2.32660848" id="s" fill="#FFFFFF"></path>
                        <polyline id="i" fill="#FFFFFF" points="12.4395001 9.01495306 10.1319973 9.01495306 11.5740453 0.209162776 13.8823014 0.209162776 12.4395001 9.01495306"></polyline>
                        <path d="M2.04067307,0.209162776 L0.222201183,0.209162776 L0.179644007,0.358083679 C0.180020619,0.358083679 1.29215637,0.587825977 2.59410466,1.36460938 L4.59843465,9.01495306 L7.00272677,9.01495306 L10.6743189,0.209162776 L8.19056157,0.209162776 L5.99076986,6.26590313 L5.73015423,4.96153562 L5.73015423,4.96190979 L4.95357993,1.00203562 C4.95357993,1.00203562 4.86018011,0.209162776 3.85914495,0.209162776 L2.04067307,0.209162776 L0.222201183,0.209162776 L0.179644007,0.358083679 C0.180020619,0.358083679 1.92825433,0.718038224 3.60493173,2.06618399 C5.20816976,3.35558457 5.73015423,4.96190979 5.73015423,4.96190979 L4.95357993,1.00203562 C4.95357993,1.00203562 4.86018011,0.209162776 3.85914495,0.209162776 L2.04067307,0.209162776 Z" id="v" fill="#FFFFFF"></path>
                        <path d="M5.73015423,4.96190979 L4.95357993,1.00203562 C4.95357993,1.00203562 4.86018011,0.209162776 3.85914495,0.209162776 L0.222201183,0.209162776 L0.179644007,0.358083679 C0.180020619,0.358083679 1.92825433,0.718038224 3.60493173,2.06618399 C5.20816976,3.35558457 5.73015423,4.96190979 5.73015423,4.96190979" id="shape" fill="#F9A533"></path>
                    </g>
                </g>
            </g>
        </g>
    </g>
</svg>